<svg width="36" height="36" viewBox="0 0 36 36" fill="none" xmlns="http://www.w3.org/2000/svg">
<path d="M13.9497 13.3894C16.9927 13.3858 20.0367 13.3804 23.0798 13.3804C23.1662 13.3804 23.2516 13.4208 23.338 13.4432V17.1508C23.1002 17.1508 22.9339 17.1508 22.7677 17.1508C19.9383 17.1508 17.1089 17.149 14.2794 17.1544C14.103 17.1544 13.9265 17.2137 13.75 17.2451C13.6896 17.1059 13.58 16.9685 13.5781 16.8285C13.5633 15.8129 13.5698 14.7964 13.5698 13.7809C13.5698 13.5797 13.5577 13.3714 13.867 13.3929C13.8949 13.3929 13.9218 13.3911 13.9497 13.3902V13.3894Z" fill="white"/>
<path d="M24.6512 17.1593C24.6131 17.0524 24.5425 16.9456 24.5416 16.8378C24.5323 15.8052 24.537 14.7726 24.5342 13.74C24.5342 13.5415 24.5574 13.3718 24.8277 13.3916C24.8556 13.3916 24.8825 13.3898 24.9104 13.3889C27.9534 13.3853 30.9965 13.3808 34.0395 13.3799C34.1259 13.3799 34.2114 13.4203 34.2978 13.4427C34.295 14.4152 34.2996 15.3877 34.2857 16.3592C34.282 16.6178 34.2225 16.8756 34.1845 17.1584H24.6503L24.6512 17.1593Z" fill="white"/>
<path d="M19.6238 26.2446C19.5663 26.144 19.4594 26.0443 19.4585 25.9429C19.4464 24.8115 19.4511 23.6801 19.4511 22.5172C19.6006 22.4858 19.7149 22.4409 19.8301 22.4409C22.9781 22.4427 26.1261 22.4481 29.2741 22.4535C29.2797 22.4894 29.2843 22.5253 29.2899 22.5621C29.2593 23.7348 29.2295 24.9085 29.198 26.1287C28.962 26.1287 28.7948 26.1287 28.6285 26.1287C25.8279 26.1287 23.0273 26.127 20.2267 26.1323C20.0493 26.1323 19.8719 26.1871 19.6954 26.2167C19.6703 26.2221 19.6471 26.2311 19.6257 26.2446H19.6238Z" fill="white"/>
<path d="M24.6192 21.6638C24.5923 21.5946 24.5421 21.5255 24.5421 21.4563C24.5393 20.3501 24.5421 19.2438 24.5468 18.1367C24.5468 18.0954 24.5774 18.0549 24.6127 17.966C24.7595 17.9571 24.923 17.9391 25.0865 17.9391C28.0255 17.9373 30.9645 17.9373 33.9044 17.9418C34.0679 17.9418 34.2314 17.9885 34.3949 18.0127C34.3605 18.169 34.2983 18.3243 34.2964 18.4806C34.2862 19.3174 34.2964 20.1552 34.2872 20.9921C34.2853 21.1753 34.2333 21.3585 34.1905 21.6287H24.9174C24.8589 21.6305 24.8004 21.6323 24.7418 21.6332L24.7158 21.6548C24.6833 21.6575 24.6517 21.6602 24.6192 21.6629V21.6638Z" fill="white"/>
<path d="M13.5898 21.5547V17.9988C13.7403 17.9755 13.8574 17.9414 13.9744 17.9414C17.049 17.9387 20.1246 17.9405 23.1992 17.9414C23.2763 17.9414 23.3534 17.953 23.4305 17.9593C23.4259 17.9854 23.424 18.0114 23.4231 18.0383C23.3934 18.1946 23.3404 18.3517 23.3386 18.508C23.3302 19.4194 23.3358 20.3308 23.3339 21.2422C23.3339 21.3544 23.3154 21.4658 23.3098 21.5304C22.6354 21.5672 22.0065 21.6292 21.3768 21.6319C18.904 21.6409 16.4313 21.631 13.9586 21.6274C13.8927 21.6355 13.8258 21.6427 13.7598 21.6507C13.7041 21.6184 13.6474 21.587 13.5917 21.5547H13.5898Z" fill="white"/>
<path d="M8.571 26.1357L8.56543 22.5341C8.62581 22.5063 8.68619 22.4775 8.74656 22.4497C11.9615 22.4533 15.1764 22.4578 18.3913 22.4614C18.3885 22.4883 18.3968 22.5117 18.4182 22.5296C18.4089 22.5548 18.4024 22.5808 18.3978 22.6077C18.1377 22.5781 18.2352 22.7712 18.2343 22.8762C18.2278 23.7876 18.2315 24.699 18.2287 25.6104C18.2287 25.7685 18.2148 25.9274 18.2055 26.1295C17.9928 26.1295 17.8265 26.1295 17.6602 26.1295C14.8624 26.1295 12.0655 26.1277 9.26767 26.133C9.08933 26.133 8.91098 26.1833 8.73263 26.2103C8.67875 26.186 8.62488 26.1618 8.571 26.1375V26.1357Z" fill="white"/>
<path d="M19.6123 30.7303C19.5575 30.5956 19.4563 30.4609 19.4544 30.3253C19.4433 29.2648 19.4498 28.2035 19.4544 27.143C19.4544 27.1008 19.4785 27.0586 19.5064 26.9679C19.6374 26.9535 19.7851 26.9239 19.9318 26.9239C22.9303 26.9212 25.9288 26.9212 28.9273 26.9239C29.0452 26.9239 29.1641 26.9634 29.2821 26.9841C29.2821 28.1963 29.2821 29.4085 29.2821 30.6207H29.283C29.1316 30.5929 28.9793 30.5659 28.8279 30.539C26.0152 30.5363 23.2025 30.5318 20.3889 30.5327C20.2876 30.5327 20.1873 30.5794 20.086 30.6045C20.0247 30.6045 19.9634 30.6045 19.9021 30.6036C19.8696 30.6054 19.838 30.6063 19.8055 30.6081L19.7284 30.6988L19.708 30.7159C19.6755 30.7204 19.6439 30.7249 19.6114 30.7294L19.6123 30.7303Z" fill="white"/>
<path d="M3.00257 17.9891C3.00257 19.2031 2.9952 20.4162 3.00542 21.606H3.26545H12.338C12.3519 21.3914 12.3686 21.2504 12.3686 21.1086C12.3714 20.242 12.3658 19.3746 12.3742 18.5081C12.3751 18.351 12.429 18.1947 12.4587 18.0376C12.4606 18.0116 12.4634 17.9864 12.4671 17.9604C12.3751 17.9541 12.2822 17.9406 12.1903 17.9406C9.24102 17.9397 6.29271 17.9379 3.34348 17.9397C3.24037 17.9397 3.13819 17.9685 3.00257 17.9891Z" fill="white"/>
<path d="M30.5332 30.6989V27.0317H34.4596C34.4745 27.1646 34.4977 27.2805 34.4977 27.3954C34.5005 28.4253 34.5014 29.4553 34.4977 30.4843C34.4977 30.601 34.4615 30.7178 34.4411 30.8345C33.1926 30.83 31.9442 30.8255 30.6958 30.821C30.6419 30.7797 30.5871 30.7393 30.5332 30.698V30.6989Z" fill="white"/>
<path d="M7.49017 22.6538V26.3273H3.5498V22.5236C4.83261 22.5093 6.10705 22.4949 7.38149 22.4814C7.41772 22.5389 7.45395 22.5964 7.4911 22.6538H7.49017Z" fill="white"/>
<path d="M34.4615 9.03955V12.8306H30.6094V9.03955H34.4615Z" fill="white"/>
<path d="M30.6786 4.5H34.4583V8.35126H30.582V4.58081C30.6145 4.55388 30.6461 4.52694 30.6786 4.5Z" fill="white"/>
<path d="M8.57808 17.2392C8.58922 16.1338 8.6013 15.0285 8.61245 13.924C8.61338 13.8225 8.61245 13.7202 8.61245 13.5846C8.75178 13.5648 8.86789 13.5352 8.98307 13.5343C10.0346 13.5307 11.0861 13.5361 12.1376 13.5298C12.3958 13.528 12.5565 13.5936 12.5556 13.8746C12.551 14.9513 12.5519 16.027 12.5472 17.1036C12.5472 17.1593 12.5147 17.215 12.4739 17.3461H8.65425C8.62824 17.3101 8.60316 17.2742 8.57715 17.2383L8.57808 17.2392Z" fill="white"/>
<path d="M30.5967 26.2167V22.5522H34.4581V26.364H30.7815C30.7202 26.3146 30.658 26.2661 30.5967 26.2167Z" fill="white"/>
</svg>
