<svg width="32" height="37" viewBox="0 0 32 37" fill="none" xmlns="http://www.w3.org/2000/svg">
<path d="M18.3997 26.798C16.7303 25.5175 15.4032 23.8704 14.5291 21.9943C14.0914 21.0382 12.2268 16.9203 14.2381 13.3276C14.7753 12.4014 15.4948 11.5853 16.3563 10.9251C18.3584 9.38091 19.5822 9.89563 21.962 8.73749C22.6413 8.40806 26.4692 6.54989 26.6053 3.63009C26.6828 1.96754 25.5376 0.635689 24.8849 0C25.8477 0.292443 26.7317 0.785841 27.4742 1.4451C27.7252 1.669 28.7115 2.56462 29.1613 3.79481C30.3732 7.11223 26.9057 10.7514 26.6401 11.0229C26.0608 11.6148 24.7995 12.4255 22.277 14.0456C19.4741 15.8472 19.1712 15.8472 18.5706 16.5935C16.9689 18.5945 17.1024 21.1282 17.1665 22.325C17.2554 23.8817 17.6752 25.4042 18.3997 26.798Z" fill="white"/>
<path d="M1.29251 25.2872C1.11634 24.8947 -0.0421702 22.2232 1.32588 20.0961C2.21745 18.709 3.83776 18.0861 5.1084 17.5984C5.55683 17.4273 6.15878 17.3951 7.02097 17.0399C7.66537 16.7706 8.28056 16.4404 8.85752 16.0543C9.30602 15.7567 9.73567 15.4336 10.1441 15.0866C11.7324 13.7071 12.8362 11.3818 13.0177 10.9945C14.3284 8.18796 14.8422 5.43544 15.0624 3.60303C15.4838 4.11965 15.7658 4.72886 15.8833 5.37624C15.9653 5.87958 15.9421 6.39363 15.8152 6.88824C15.2947 9.07585 13.4128 13.4433 12.7454 15.9564C12.3197 17.5727 11.5523 20.4886 12.8789 23.3158C13.7558 25.1816 15.1239 26.3462 17.0365 27.9148C19.8393 30.2208 21.4663 30.4885 22.8063 32.6246C23.4507 33.676 23.8536 34.8485 23.9875 36.063C23.1103 35.2886 22.1506 34.6058 21.1246 34.0259C19.256 32.9733 16.963 31.6749 14.3911 32.0584C13.1432 32.2437 12.9643 32.658 10.7661 33.0402C8.90555 33.3645 8.16882 33.2191 7.76709 33.1059C6.47244 32.743 5.66228 31.8782 5.27922 31.3982C5.69963 31.6202 6.16411 31.7535 6.64194 31.7894C8.24355 31.9014 9.63163 30.8166 10.2883 29.8837C11.9646 27.5043 10.3217 24.0287 8.82014 22.3275C8.28625 21.7278 7.52416 20.8811 6.2642 20.6842C4.72667 20.4449 3.51477 21.3379 3.19444 21.5721C1.44333 22.8692 1.30853 24.941 1.29251 25.2872Z" fill="white"/>
<path d="M6.71895 15.7717C8.31761 15.7717 9.61363 14.5189 9.61363 12.9735C9.61363 11.4281 8.31761 10.1753 6.71895 10.1753C5.12024 10.1753 3.82422 11.4281 3.82422 12.9735C3.82422 14.5189 5.12024 15.7717 6.71895 15.7717Z" fill="white"/>
<path d="M22.3169 15.0684C21.7831 15.5162 17.8538 18.8902 18.3983 23.3156C18.6839 25.6318 20.084 27.3292 21.0557 28.5066C22.4508 30.1855 24.2066 31.553 26.2022 32.515C25.1604 30.8173 24.5087 28.9238 24.291 26.9624C24.0183 24.3523 24.5142 21.721 25.7218 19.3702C24.6782 19.6304 23.7547 20.2192 23.0977 21.043C22.3536 22.0163 22.0245 23.2274 22.1781 24.4274C21.55 23.6725 21.0881 22.802 20.8208 21.8692C19.8571 18.4784 21.9486 15.5651 22.3169 15.0684Z" fill="white"/>
<path d="M16.1152 2.87988C16.5376 3.51479 16.8054 4.23364 16.8987 4.98253C16.9227 5.18973 16.9708 5.72375 16.593 7.61153C16.4289 8.42736 16.2674 9.09393 16.1499 9.54945C16.5438 9.14287 16.9928 8.78922 17.4846 8.49813C18.7806 7.72606 19.9111 7.68358 20.8587 7.48027C21.8958 7.25763 23.3345 6.70816 24.9482 5.24505C24.3925 5.42228 23.8224 5.55444 23.2438 5.64011C22.5099 5.74419 21.7708 5.80989 21.0296 5.837C20.4596 5.85244 20.0846 5.837 19.5974 6.03389C19.3089 6.15366 19.0439 6.32037 18.814 6.52671C18.9094 5.97418 18.8509 5.40705 18.6444 4.88345C18.0185 3.35086 16.3141 2.92621 16.1152 2.87988Z" fill="white"/>
<path d="M22.6582 16.7459C22.6047 16.1233 22.7347 15.4988 23.0332 14.9444C23.1347 14.7642 23.483 14.1851 24.8391 13.368C25.4857 12.976 26.1706 12.6459 26.8838 12.3823C28.0076 11.9718 29.4197 10.4045 30.7344 5.3833L31.2455 5.81053C29.724 12.1159 28.202 18.4222 26.6796 24.7293C27.4392 24.8485 28.1687 25.1048 28.8298 25.4847C29.2982 25.7562 30.354 26.3854 30.8732 27.5873C31.0427 27.9734 31.1895 28.317 31.0787 28.7043C30.8638 29.4558 29.8027 29.9705 28.9312 29.9203C27.2361 29.8225 26.0603 27.5783 25.8307 26.2735C25.7367 25.6797 25.7005 25.0787 25.7226 24.4784C25.7681 24.037 25.8575 23.601 25.9896 23.1761C26.8011 20.1971 27.0319 19.2024 27.1654 18.1254C27.2015 17.8333 27.2215 17.5978 27.2335 17.4678C26.7134 17.7884 26.1351 18.0115 25.5291 18.1254C24.8137 18.2541 24.7283 18.1022 24.2344 18.2232C22.8277 18.5655 22.0989 20.1161 21.9535 20.4288C21.7346 20.8956 21.5962 21.3937 21.5437 21.9035C21.2316 21.4551 21.0542 20.9323 21.0312 20.3928C20.9818 18.5989 22.8837 16.9608 24.6095 16.4499C25.3596 16.2273 25.5851 16.3637 26.2111 16.0549C27.3002 15.5183 27.8728 14.4862 28.1864 13.6897C27.6088 14.0016 27.0047 14.2655 26.3806 14.4785C25.3743 14.8234 24.9552 14.8182 24.3359 15.1348C23.8634 15.3741 23.2308 15.8233 22.6582 16.7459Z" fill="white"/>
</svg>
