<svg width="78" height="16" viewBox="0 0 78 16" fill="none" xmlns="http://www.w3.org/2000/svg">
    <rect x="0.576" y="2.00422" width="16.128" height="11.4153" rx="5.70764" stroke="#195A7F" stroke-width="1.152" />
    <path d="M4.31934 8.66755V3.60205L10.4361 11.8215H7.42548L4.31934 8.66755Z" fill="#D9D9D9" />
    <path d="M12.96 3.60208L8.5498 8.23874H12.9601L12.96 3.60208Z" fill="#D9D9D9" />
    <path
        d="M27.5791 11.3213V12.2119H21.9951V11.4326L24.79 8.32129C25.1338 7.93848 25.3994 7.61426 25.5869 7.34863C25.7783 7.0791 25.9111 6.83887 25.9854 6.62793C26.0635 6.41309 26.1025 6.19434 26.1025 5.97168C26.1025 5.69043 26.0439 5.43652 25.9268 5.20996C25.8135 4.97949 25.6455 4.7959 25.4229 4.65918C25.2002 4.52246 24.9307 4.4541 24.6143 4.4541C24.2354 4.4541 23.9189 4.52832 23.665 4.67676C23.415 4.82129 23.2275 5.02441 23.1025 5.28613C22.9775 5.54785 22.915 5.84863 22.915 6.18848H21.8311C21.8311 5.70801 21.9365 5.26855 22.1475 4.87012C22.3584 4.47168 22.6709 4.15527 23.085 3.9209C23.499 3.68262 24.0088 3.56348 24.6143 3.56348C25.1533 3.56348 25.6143 3.65918 25.9971 3.85059C26.3799 4.03809 26.6729 4.30371 26.876 4.64746C27.083 4.9873 27.1865 5.38574 27.1865 5.84277C27.1865 6.09277 27.1436 6.34668 27.0576 6.60449C26.9756 6.8584 26.8604 7.1123 26.7119 7.36621C26.5674 7.62012 26.3975 7.87012 26.2021 8.11621C26.0107 8.3623 25.8057 8.60449 25.5869 8.84277L23.3018 11.3213H27.5791ZM34.3291 11.3213V12.2119H28.7451V11.4326L31.54 8.32129C31.8838 7.93848 32.1494 7.61426 32.3369 7.34863C32.5283 7.0791 32.6611 6.83887 32.7354 6.62793C32.8135 6.41309 32.8525 6.19434 32.8525 5.97168C32.8525 5.69043 32.7939 5.43652 32.6768 5.20996C32.5635 4.97949 32.3955 4.7959 32.1729 4.65918C31.9502 4.52246 31.6807 4.4541 31.3643 4.4541C30.9854 4.4541 30.6689 4.52832 30.415 4.67676C30.165 4.82129 29.9775 5.02441 29.8525 5.28613C29.7275 5.54785 29.665 5.84863 29.665 6.18848H28.5811C28.5811 5.70801 28.6865 5.26855 28.8975 4.87012C29.1084 4.47168 29.4209 4.15527 29.835 3.9209C30.249 3.68262 30.7588 3.56348 31.3643 3.56348C31.9033 3.56348 32.3643 3.65918 32.7471 3.85059C33.1299 4.03809 33.4229 4.30371 33.626 4.64746C33.833 4.9873 33.9365 5.38574 33.9365 5.84277C33.9365 6.09277 33.8936 6.34668 33.8076 6.60449C33.7256 6.8584 33.6104 7.1123 33.4619 7.36621C33.3174 7.62012 33.1475 7.87012 32.9521 8.11621C32.7607 8.3623 32.5557 8.60449 32.3369 8.84277L30.0518 11.3213H34.3291ZM41.0791 11.3213V12.2119H35.4951V11.4326L38.29 8.32129C38.6338 7.93848 38.8994 7.61426 39.0869 7.34863C39.2783 7.0791 39.4111 6.83887 39.4854 6.62793C39.5635 6.41309 39.6025 6.19434 39.6025 5.97168C39.6025 5.69043 39.5439 5.43652 39.4268 5.20996C39.3135 4.97949 39.1455 4.7959 38.9229 4.65918C38.7002 4.52246 38.4307 4.4541 38.1143 4.4541C37.7354 4.4541 37.4189 4.52832 37.165 4.67676C36.915 4.82129 36.7275 5.02441 36.6025 5.28613C36.4775 5.54785 36.415 5.84863 36.415 6.18848H35.3311C35.3311 5.70801 35.4365 5.26855 35.6475 4.87012C35.8584 4.47168 36.1709 4.15527 36.585 3.9209C36.999 3.68262 37.5088 3.56348 38.1143 3.56348C38.6533 3.56348 39.1143 3.65918 39.4971 3.85059C39.8799 4.03809 40.1729 4.30371 40.376 4.64746C40.583 4.9873 40.6865 5.38574 40.6865 5.84277C40.6865 6.09277 40.6436 6.34668 40.5576 6.60449C40.4756 6.8584 40.3604 7.1123 40.2119 7.36621C40.0674 7.62012 39.8975 7.87012 39.7021 8.11621C39.5107 8.3623 39.3057 8.60449 39.0869 8.84277L36.8018 11.3213H41.0791ZM47.8291 11.3213V12.2119H42.2451V11.4326L45.04 8.32129C45.3838 7.93848 45.6494 7.61426 45.8369 7.34863C46.0283 7.0791 46.1611 6.83887 46.2354 6.62793C46.3135 6.41309 46.3525 6.19434 46.3525 5.97168C46.3525 5.69043 46.2939 5.43652 46.1768 5.20996C46.0635 4.97949 45.8955 4.7959 45.6729 4.65918C45.4502 4.52246 45.1807 4.4541 44.8643 4.4541C44.4854 4.4541 44.1689 4.52832 43.915 4.67676C43.665 4.82129 43.4775 5.02441 43.3525 5.28613C43.2275 5.54785 43.165 5.84863 43.165 6.18848H42.0811C42.0811 5.70801 42.1865 5.26855 42.3975 4.87012C42.6084 4.47168 42.9209 4.15527 43.335 3.9209C43.749 3.68262 44.2588 3.56348 44.8643 3.56348C45.4033 3.56348 45.8643 3.65918 46.2471 3.85059C46.6299 4.03809 46.9229 4.30371 47.126 4.64746C47.333 4.9873 47.4365 5.38574 47.4365 5.84277C47.4365 6.09277 47.3936 6.34668 47.3076 6.60449C47.2256 6.8584 47.1104 7.1123 46.9619 7.36621C46.8174 7.62012 46.6475 7.87012 46.4521 8.11621C46.2607 8.3623 46.0557 8.60449 45.8369 8.84277L43.5518 11.3213H47.8291Z"
        fill="#D9D9D9" />
    <circle cx="69.0199" cy="7.87953" r="2.27992" transform="rotate(90 69.0199 7.87953)" stroke="white"
        stroke-width="1.5" stroke-linecap="round" stroke-linejoin="round" />
    <path d="M77 7.9282L73 14.8564H65L61 7.9282L65 1L73 1L77 7.9282Z" stroke="white" stroke-width="1.5"
        stroke-linecap="square" />
</svg>