<svg width="307" height="39" viewBox="0 0 307 39" fill="none" xmlns="http://www.w3.org/2000/svg">
<circle cx="289.188" cy="19.7927" r="4.57934" transform="rotate(90 289.188 19.7927)" stroke="white" stroke-width="1.5" stroke-linecap="round" stroke-linejoin="round"/>
<path d="M305.256 19.7926L297.222 33.7083H281.153L273.119 19.7926L281.153 5.87695L297.222 5.87695L305.256 19.7926Z" stroke="white" stroke-width="1.5" stroke-linecap="square"/>
<path d="M19.4255 14.73L20.793 18.4256L24.4887 19.7932L20.793 21.1607L19.4255 24.8563L18.058 21.1607L14.3623 19.7932L18.058 18.4256L19.4255 14.73Z" fill="white"/>
<rect x="9.05006" y="19.7935" width="14.6741" height="14.6732" rx="7.3366" transform="rotate(-45 9.05006 19.7935)" stroke="#195A7F" stroke-width="0.8"/>
<path d="M43.3797 15.143V24.293H42.2234V16.5867L39.8922 17.4367V16.393L43.1984 15.143H43.3797ZM47.9297 23.3242H48.0484C48.7151 23.3242 49.2568 23.2305 49.6734 23.043C50.0901 22.8555 50.4109 22.6034 50.6359 22.2867C50.8609 21.9701 51.0151 21.6138 51.0984 21.218C51.1818 20.818 51.2234 20.4076 51.2234 19.9867V18.593C51.2234 18.1805 51.1755 17.8138 51.0797 17.493C50.988 17.1721 50.8589 16.9034 50.6922 16.6867C50.5297 16.4701 50.3443 16.3055 50.1359 16.193C49.9276 16.0805 49.7068 16.0242 49.4734 16.0242C49.2068 16.0242 48.9672 16.0784 48.7547 16.1867C48.5464 16.2909 48.3693 16.4388 48.2234 16.6305C48.0818 16.8221 47.9734 17.0471 47.8984 17.3055C47.8234 17.5638 47.7859 17.8451 47.7859 18.1492C47.7859 18.4201 47.8193 18.6826 47.8859 18.9367C47.9526 19.1909 48.0547 19.4201 48.1922 19.6242C48.3297 19.8284 48.5005 19.9909 48.7047 20.1117C48.913 20.2284 49.1568 20.2867 49.4359 20.2867C49.6943 20.2867 49.9359 20.2367 50.1609 20.1367C50.3901 20.0326 50.5922 19.893 50.7672 19.718C50.9464 19.5388 51.088 19.3367 51.1922 19.1117C51.3005 18.8867 51.363 18.6513 51.3797 18.4055H51.9297C51.9297 18.7513 51.8609 19.093 51.7234 19.4305C51.5901 19.7638 51.4026 20.068 51.1609 20.343C50.9193 20.618 50.6359 20.8388 50.3109 21.0055C49.9859 21.168 49.6318 21.2492 49.2484 21.2492C48.7984 21.2492 48.4089 21.1617 48.0797 20.9867C47.7505 20.8117 47.4797 20.5784 47.2672 20.2867C47.0589 19.9951 46.9026 19.6701 46.7984 19.3117C46.6984 18.9492 46.6484 18.5826 46.6484 18.2117C46.6484 17.7784 46.7089 17.3721 46.8297 16.993C46.9505 16.6138 47.1297 16.2805 47.3672 15.993C47.6047 15.7013 47.8984 15.4742 48.2484 15.3117C48.6026 15.1492 49.0109 15.068 49.4734 15.068C49.9943 15.068 50.438 15.1721 50.8047 15.3805C51.1714 15.5888 51.4693 15.868 51.6984 16.218C51.9318 16.568 52.1026 16.9617 52.2109 17.3992C52.3193 17.8367 52.3734 18.2867 52.3734 18.7492V19.168C52.3734 19.6388 52.3422 20.118 52.2797 20.6055C52.2214 21.0888 52.1068 21.5513 51.9359 21.993C51.7693 22.4346 51.5255 22.8305 51.2047 23.1805C50.8839 23.5263 50.4651 23.8013 49.9484 24.0055C49.4359 24.2055 48.8026 24.3055 48.0484 24.3055H47.9297V23.3242ZM58.1297 15.193L54.3359 25.0742H53.3422L57.1422 15.193H58.1297ZM63.0672 15.143V24.293H61.9109V16.5867L59.5797 17.4367V16.393L62.8859 15.143H63.0672ZM67.6172 23.3242H67.7359C68.4026 23.3242 68.9443 23.2305 69.3609 23.043C69.7776 22.8555 70.0984 22.6034 70.3234 22.2867C70.5484 21.9701 70.7026 21.6138 70.7859 21.218C70.8693 20.818 70.9109 20.4076 70.9109 19.9867V18.593C70.9109 18.1805 70.863 17.8138 70.7672 17.493C70.6755 17.1721 70.5464 16.9034 70.3797 16.6867C70.2172 16.4701 70.0318 16.3055 69.8234 16.193C69.6151 16.0805 69.3943 16.0242 69.1609 16.0242C68.8943 16.0242 68.6547 16.0784 68.4422 16.1867C68.2339 16.2909 68.0568 16.4388 67.9109 16.6305C67.7693 16.8221 67.6609 17.0471 67.5859 17.3055C67.5109 17.5638 67.4734 17.8451 67.4734 18.1492C67.4734 18.4201 67.5068 18.6826 67.5734 18.9367C67.6401 19.1909 67.7422 19.4201 67.8797 19.6242C68.0172 19.8284 68.188 19.9909 68.3922 20.1117C68.6005 20.2284 68.8443 20.2867 69.1234 20.2867C69.3818 20.2867 69.6234 20.2367 69.8484 20.1367C70.0776 20.0326 70.2797 19.893 70.4547 19.718C70.6339 19.5388 70.7755 19.3367 70.8797 19.1117C70.988 18.8867 71.0505 18.6513 71.0672 18.4055H71.6172C71.6172 18.7513 71.5484 19.093 71.4109 19.4305C71.2776 19.7638 71.0901 20.068 70.8484 20.343C70.6068 20.618 70.3234 20.8388 69.9984 21.0055C69.6734 21.168 69.3193 21.2492 68.9359 21.2492C68.4859 21.2492 68.0964 21.1617 67.7672 20.9867C67.438 20.8117 67.1672 20.5784 66.9547 20.2867C66.7464 19.9951 66.5901 19.6701 66.4859 19.3117C66.3859 18.9492 66.3359 18.5826 66.3359 18.2117C66.3359 17.7784 66.3964 17.3721 66.5172 16.993C66.638 16.6138 66.8172 16.2805 67.0547 15.993C67.2922 15.7013 67.5859 15.4742 67.9359 15.3117C68.2901 15.1492 68.6984 15.068 69.1609 15.068C69.6818 15.068 70.1255 15.1721 70.4922 15.3805C70.8589 15.5888 71.1568 15.868 71.3859 16.218C71.6193 16.568 71.7901 16.9617 71.8984 17.3992C72.0068 17.8367 72.0609 18.2867 72.0609 18.7492V19.168C72.0609 19.6388 72.0297 20.118 71.9672 20.6055C71.9089 21.0888 71.7943 21.5513 71.6234 21.993C71.4568 22.4346 71.213 22.8305 70.8922 23.1805C70.5714 23.5263 70.1526 23.8013 69.6359 24.0055C69.1234 24.2055 68.4901 24.3055 67.7359 24.3055H67.6172V23.3242Z" fill="white"/>
<rect x="103.767" y="13.7931" width="16.8" height="12" rx="6" stroke="#195A7F" stroke-width="0.8"/>
<path d="M108.852 20.5266V16.6392L113.546 22.9471H111.235L108.852 20.5266Z" fill="white"/>
<path d="M115.482 16.6392L112.098 20.1975H115.482L115.482 16.6392Z" fill="white"/>
<path d="M135.786 23.343V24.293H129.829V23.4617L132.811 20.143C133.177 19.7346 133.461 19.3888 133.661 19.1055C133.865 18.818 134.006 18.5617 134.086 18.3367C134.169 18.1076 134.211 17.8742 134.211 17.6367C134.211 17.3367 134.148 17.0659 134.023 16.8242C133.902 16.5784 133.723 16.3826 133.486 16.2367C133.248 16.0909 132.961 16.018 132.623 16.018C132.219 16.018 131.881 16.0971 131.611 16.2555C131.344 16.4096 131.144 16.6263 131.011 16.9055C130.877 17.1846 130.811 17.5055 130.811 17.868H129.654C129.654 17.3555 129.767 16.8867 129.992 16.4617C130.217 16.0367 130.55 15.6992 130.992 15.4492C131.433 15.1951 131.977 15.068 132.623 15.068C133.198 15.068 133.69 15.1701 134.098 15.3742C134.506 15.5742 134.819 15.8576 135.036 16.2242C135.256 16.5867 135.367 17.0117 135.367 17.4992C135.367 17.7659 135.321 18.0367 135.229 18.3117C135.142 18.5826 135.019 18.8534 134.861 19.1242C134.706 19.3951 134.525 19.6617 134.317 19.9242C134.113 20.1867 133.894 20.4451 133.661 20.6992L131.223 23.343H135.786ZM142.986 23.343V24.293H137.029V23.4617L140.011 20.143C140.377 19.7346 140.661 19.3888 140.861 19.1055C141.065 18.818 141.206 18.5617 141.286 18.3367C141.369 18.1076 141.411 17.8742 141.411 17.6367C141.411 17.3367 141.348 17.0659 141.223 16.8242C141.102 16.5784 140.923 16.3826 140.686 16.2367C140.448 16.0909 140.161 16.018 139.823 16.018C139.419 16.018 139.081 16.0971 138.811 16.2555C138.544 16.4096 138.344 16.6263 138.211 16.9055C138.077 17.1846 138.011 17.5055 138.011 17.868H136.854C136.854 17.3555 136.967 16.8867 137.192 16.4617C137.417 16.0367 137.75 15.6992 138.192 15.4492C138.633 15.1951 139.177 15.068 139.823 15.068C140.398 15.068 140.89 15.1701 141.298 15.3742C141.706 15.5742 142.019 15.8576 142.236 16.2242C142.456 16.5867 142.567 17.0117 142.567 17.4992C142.567 17.7659 142.521 18.0367 142.429 18.3117C142.342 18.5826 142.219 18.8534 142.061 19.1242C141.906 19.3951 141.725 19.6617 141.517 19.9242C141.313 20.1867 141.094 20.4451 140.861 20.6992L138.423 23.343H142.986ZM149.936 19.018V20.4055C149.936 21.1513 149.869 21.7805 149.736 22.293C149.602 22.8055 149.411 23.218 149.161 23.5305C148.911 23.843 148.608 24.0701 148.254 24.2117C147.904 24.3492 147.508 24.418 147.067 24.418C146.717 24.418 146.394 24.3742 146.098 24.2867C145.802 24.1992 145.536 24.0596 145.298 23.868C145.065 23.6721 144.865 23.418 144.698 23.1055C144.531 22.793 144.404 22.4138 144.317 21.968C144.229 21.5221 144.186 21.0013 144.186 20.4055V19.018C144.186 18.2721 144.252 17.6471 144.386 17.143C144.523 16.6388 144.717 16.2346 144.967 15.9305C145.217 15.6221 145.517 15.4013 145.867 15.268C146.221 15.1346 146.617 15.068 147.054 15.068C147.408 15.068 147.733 15.1117 148.029 15.1992C148.329 15.2826 148.596 15.418 148.829 15.6055C149.063 15.7888 149.261 16.0346 149.423 16.343C149.59 16.6471 149.717 17.0201 149.804 17.4617C149.892 17.9034 149.936 18.4221 149.936 19.018ZM148.773 20.593V18.8242C148.773 18.4159 148.748 18.0576 148.698 17.7492C148.652 17.4367 148.583 17.1701 148.492 16.9492C148.4 16.7284 148.283 16.5492 148.142 16.4117C148.004 16.2742 147.844 16.1742 147.661 16.1117C147.481 16.0451 147.279 16.0117 147.054 16.0117C146.779 16.0117 146.536 16.0638 146.323 16.168C146.111 16.268 145.931 16.4284 145.786 16.6492C145.644 16.8701 145.536 17.1596 145.461 17.518C145.386 17.8763 145.348 18.3117 145.348 18.8242V20.593C145.348 21.0013 145.371 21.3617 145.417 21.6742C145.467 21.9867 145.54 22.2576 145.636 22.4867C145.731 22.7117 145.848 22.8971 145.986 23.043C146.123 23.1888 146.281 23.2971 146.461 23.368C146.644 23.4346 146.846 23.468 147.067 23.468C147.35 23.468 147.598 23.4138 147.811 23.3055C148.023 23.1971 148.2 23.0284 148.342 22.7992C148.488 22.5659 148.596 22.268 148.667 21.9055C148.738 21.5388 148.773 21.1013 148.773 20.593ZM155.223 15.143V24.293H154.067V16.5867L151.736 17.4367V16.393L155.042 15.143H155.223Z" fill="white"/>
<rect x="188.533" y="21.8746" width="16.8" height="12" rx="1.2" transform="rotate(-47.1684 188.533 21.8746)" stroke="#195A7F" stroke-width="0.8"/>
<path d="M198.691 17.8252L200.212 16.2959V18.8728L198.691 20.3176L198.691 17.8252Z" fill="white"/>
<path d="M195.911 20.7387L197.432 19.2095V21.7864L195.911 23.2312L195.911 20.7387Z" fill="white"/>
<path d="M198.725 20.646L201.376 23.2914L199.243 23.2914L197.678 21.6695L198.725 20.646Z" fill="white"/>
<path d="M224.139 23.3435V24.2935H218.183V23.4622L221.164 20.1435C221.531 19.7351 221.814 19.3893 222.014 19.106C222.218 18.8185 222.36 18.5622 222.439 18.3372C222.522 18.108 222.564 17.8747 222.564 17.6372C222.564 17.3372 222.502 17.0664 222.377 16.8247C222.256 16.5789 222.077 16.383 221.839 16.2372C221.602 16.0914 221.314 16.0185 220.977 16.0185C220.572 16.0185 220.235 16.0976 219.964 16.256C219.697 16.4101 219.497 16.6268 219.364 16.906C219.231 17.1851 219.164 17.506 219.164 17.8685H218.008C218.008 17.356 218.12 16.8872 218.345 16.4622C218.57 16.0372 218.904 15.6997 219.345 15.4497C219.787 15.1955 220.331 15.0685 220.977 15.0685C221.552 15.0685 222.043 15.1705 222.452 15.3747C222.86 15.5747 223.172 15.858 223.389 16.2247C223.61 16.5872 223.72 17.0122 223.72 17.4997C223.72 17.7664 223.674 18.0372 223.583 18.3122C223.495 18.583 223.372 18.8539 223.214 19.1247C223.06 19.3955 222.879 19.6622 222.67 19.9247C222.466 20.1872 222.247 20.4455 222.014 20.6997L219.577 23.3435H224.139ZM231.339 23.3435V24.2935H225.383V23.4622L228.364 20.1435C228.731 19.7351 229.014 19.3893 229.214 19.106C229.418 18.8185 229.56 18.5622 229.639 18.3372C229.722 18.108 229.764 17.8747 229.764 17.6372C229.764 17.3372 229.702 17.0664 229.577 16.8247C229.456 16.5789 229.277 16.383 229.039 16.2372C228.802 16.0914 228.514 16.0185 228.177 16.0185C227.772 16.0185 227.435 16.0976 227.164 16.256C226.897 16.4101 226.697 16.6268 226.564 16.906C226.431 17.1851 226.364 17.506 226.364 17.8685H225.208C225.208 17.356 225.32 16.8872 225.545 16.4622C225.77 16.0372 226.104 15.6997 226.545 15.4497C226.987 15.1955 227.531 15.0685 228.177 15.0685C228.752 15.0685 229.243 15.1705 229.652 15.3747C230.06 15.5747 230.372 15.858 230.589 16.2247C230.81 16.5872 230.92 17.0122 230.92 17.4997C230.92 17.7664 230.874 18.0372 230.783 18.3122C230.695 18.583 230.572 18.8539 230.414 19.1247C230.26 19.3955 230.079 19.6622 229.87 19.9247C229.666 20.1872 229.447 20.4455 229.214 20.6997L226.777 23.3435H231.339ZM238.539 23.3435V24.2935H232.583V23.4622L235.564 20.1435C235.931 19.7351 236.214 19.3893 236.414 19.106C236.618 18.8185 236.76 18.5622 236.839 18.3372C236.922 18.108 236.964 17.8747 236.964 17.6372C236.964 17.3372 236.902 17.0664 236.777 16.8247C236.656 16.5789 236.477 16.383 236.239 16.2372C236.002 16.0914 235.714 16.0185 235.377 16.0185C234.972 16.0185 234.635 16.0976 234.364 16.256C234.097 16.4101 233.897 16.6268 233.764 16.906C233.631 17.1851 233.564 17.506 233.564 17.8685H232.408C232.408 17.356 232.52 16.8872 232.745 16.4622C232.97 16.0372 233.304 15.6997 233.745 15.4497C234.187 15.1955 234.731 15.0685 235.377 15.0685C235.952 15.0685 236.443 15.1705 236.852 15.3747C237.26 15.5747 237.572 15.858 237.789 16.2247C238.01 16.5872 238.12 17.0122 238.12 17.4997C238.12 17.7664 238.074 18.0372 237.983 18.3122C237.895 18.583 237.772 18.8539 237.614 19.1247C237.46 19.3955 237.279 19.6622 237.07 19.9247C236.866 20.1872 236.647 20.4455 236.414 20.6997L233.977 23.3435H238.539ZM245.739 23.3435V24.2935H239.783V23.4622L242.764 20.1435C243.131 19.7351 243.414 19.3893 243.614 19.106C243.818 18.8185 243.96 18.5622 244.039 18.3372C244.122 18.108 244.164 17.8747 244.164 17.6372C244.164 17.3372 244.102 17.0664 243.977 16.8247C243.856 16.5789 243.677 16.383 243.439 16.2372C243.202 16.0914 242.914 16.0185 242.577 16.0185C242.172 16.0185 241.835 16.0976 241.564 16.256C241.297 16.4101 241.097 16.6268 240.964 16.906C240.831 17.1851 240.764 17.506 240.764 17.8685H239.608C239.608 17.356 239.72 16.8872 239.945 16.4622C240.17 16.0372 240.504 15.6997 240.945 15.4497C241.387 15.1955 241.931 15.0685 242.577 15.0685C243.152 15.0685 243.643 15.1705 244.052 15.3747C244.46 15.5747 244.772 15.858 244.989 16.2247C245.21 16.5872 245.32 17.0122 245.32 17.4997C245.32 17.7664 245.274 18.0372 245.183 18.3122C245.095 18.583 244.972 18.8539 244.814 19.1247C244.66 19.3955 244.479 19.6622 244.27 19.9247C244.066 20.1872 243.847 20.4455 243.614 20.6997L241.177 23.3435H245.739Z" fill="white"/>
</svg>
