<svg width="196" height="39" viewBox="0 0 196 39" fill="none" xmlns="http://www.w3.org/2000/svg">
<path d="M30.6106 7.5L20.5 19.5L30.6106 31.5" stroke="white" stroke-width="2"/>
<line y1="-0.5" x2="11.492" y2="-0.5" transform="matrix(-1 0 0 1 44.5 16.7568)" stroke="white"/>
<line y1="-0.5" x2="11.492" y2="-0.5" transform="matrix(-1 0 0 1 40.7139 19.4087)" stroke="white"/>
<line y1="-0.5" x2="11.492" y2="-0.5" transform="matrix(-1 0 0 1 44.5 22.0605)" stroke="white"/>
<path d="M60.1348 21.1797H57.252L57.2363 19.9688H59.8535C60.2858 19.9688 60.6634 19.8958 60.9863 19.75C61.3092 19.6042 61.5592 19.3958 61.7363 19.125C61.9186 18.849 62.0098 18.5208 62.0098 18.1406C62.0098 17.724 61.929 17.3854 61.7676 17.125C61.6113 16.8594 61.3691 16.6667 61.041 16.5469C60.7181 16.4219 60.3066 16.3594 59.8066 16.3594H57.5879V26.5H56.0801V15.125H59.8066C60.39 15.125 60.9108 15.1849 61.3691 15.3047C61.8275 15.4193 62.2155 15.6016 62.5332 15.8516C62.8561 16.0964 63.1009 16.4089 63.2676 16.7891C63.4342 17.1693 63.5176 17.625 63.5176 18.1562C63.5176 18.625 63.3978 19.0495 63.1582 19.4297C62.9186 19.8047 62.5853 20.112 62.1582 20.3516C61.7363 20.5911 61.2415 20.7448 60.6738 20.8125L60.1348 21.1797ZM60.0645 26.5H56.6582L57.5098 25.2734H60.0645C60.5436 25.2734 60.9499 25.1901 61.2832 25.0234C61.6217 24.8568 61.8796 24.6224 62.0566 24.3203C62.2337 24.013 62.3223 23.651 62.3223 23.2344C62.3223 22.8125 62.2467 22.4479 62.0957 22.1406C61.9447 21.8333 61.7077 21.5964 61.3848 21.4297C61.0618 21.263 60.6452 21.1797 60.1348 21.1797H57.9863L58.002 19.9688H60.9395L61.2598 20.4062C61.8066 20.4531 62.2702 20.6094 62.6504 20.875C63.0306 21.1354 63.3197 21.4688 63.5176 21.875C63.7207 22.2812 63.8223 22.7292 63.8223 23.2188C63.8223 23.9271 63.666 24.526 63.3535 25.0156C63.0462 25.5 62.6113 25.8698 62.0488 26.125C61.4863 26.375 60.8249 26.5 60.0645 26.5ZM70.2598 16.1328L66.4941 26.5H64.9551L69.291 15.125H70.2832L70.2598 16.1328ZM73.416 26.5L69.6426 16.1328L69.6191 15.125H70.6113L74.9629 26.5H73.416ZM73.2207 22.2891V23.5234H66.8301V22.2891H73.2207ZM83.2598 22.8828H84.7598C84.6816 23.6016 84.4759 24.2448 84.1426 24.8125C83.8092 25.3802 83.3379 25.8307 82.7285 26.1641C82.1191 26.4922 81.3587 26.6562 80.4473 26.6562C79.7806 26.6562 79.1738 26.5312 78.627 26.2812C78.0853 26.0312 77.6191 25.6771 77.2285 25.2188C76.8379 24.7552 76.5358 24.2005 76.3223 23.5547C76.1139 22.9036 76.0098 22.1797 76.0098 21.3828V20.25C76.0098 19.4531 76.1139 18.7318 76.3223 18.0859C76.5358 17.4349 76.8405 16.8776 77.2363 16.4141C77.6374 15.9505 78.1191 15.5938 78.6816 15.3438C79.2441 15.0938 79.877 14.9688 80.5801 14.9688C81.4395 14.9688 82.166 15.1302 82.7598 15.4531C83.3535 15.776 83.8145 16.224 84.1426 16.7969C84.4759 17.3646 84.6816 18.0234 84.7598 18.7734H83.2598C83.1868 18.2422 83.0514 17.7865 82.8535 17.4062C82.6556 17.0208 82.3743 16.724 82.0098 16.5156C81.6452 16.3073 81.1686 16.2031 80.5801 16.2031C80.0749 16.2031 79.6296 16.2995 79.2441 16.4922C78.8639 16.6849 78.5436 16.9583 78.2832 17.3125C78.028 17.6667 77.8353 18.0911 77.7051 18.5859C77.5749 19.0807 77.5098 19.6302 77.5098 20.2344V21.3828C77.5098 21.9401 77.5671 22.4635 77.6816 22.9531C77.8014 23.4427 77.9811 23.8724 78.2207 24.2422C78.4603 24.612 78.765 24.9036 79.1348 25.1172C79.5046 25.3255 79.9421 25.4297 80.4473 25.4297C81.0879 25.4297 81.5983 25.3281 81.9785 25.125C82.3587 24.9219 82.6452 24.6302 82.8379 24.25C83.0358 23.8698 83.1764 23.4141 83.2598 22.8828ZM88.3223 15.125V26.5H86.8145V15.125H88.3223ZM95.1895 15.125L90.4629 20.4297L87.8066 23.1875L87.5566 21.5781L89.5566 19.375L93.377 15.125H95.1895ZM93.7363 26.5L89.5254 20.9531L90.4238 19.7578L95.5332 26.5H93.7363ZM105.643 15.125L100.9 27.4766H99.6582L104.408 15.125H105.643ZM110.502 15.125L105.76 27.4766H104.518L109.268 15.125H110.502ZM125.221 24.9668V26.5H118.111V24.9668H125.221ZM118.482 12.2812V26.5H116.598V12.2812H118.482ZM137.682 18.9414V19.8398C137.682 20.9076 137.548 21.8646 137.281 22.7109C137.014 23.5573 136.63 24.2767 136.129 24.8691C135.628 25.4616 135.025 25.9141 134.322 26.2266C133.626 26.5391 132.844 26.6953 131.979 26.6953C131.139 26.6953 130.367 26.5391 129.664 26.2266C128.967 25.9141 128.362 25.4616 127.848 24.8691C127.34 24.2767 126.946 23.5573 126.666 22.7109C126.386 21.8646 126.246 20.9076 126.246 19.8398V18.9414C126.246 17.8737 126.383 16.9199 126.656 16.0801C126.936 15.2337 127.33 14.5143 127.838 13.9219C128.346 13.3229 128.948 12.8672 129.645 12.5547C130.348 12.2422 131.119 12.0859 131.959 12.0859C132.825 12.0859 133.606 12.2422 134.303 12.5547C135.006 12.8672 135.608 13.3229 136.109 13.9219C136.617 14.5143 137.005 15.2337 137.271 16.0801C137.545 16.9199 137.682 17.8737 137.682 18.9414ZM135.816 19.8398V18.9219C135.816 18.0755 135.729 17.3268 135.553 16.6758C135.383 16.0247 135.133 15.4779 134.801 15.0352C134.469 14.5924 134.062 14.2572 133.58 14.0293C133.105 13.8014 132.564 13.6875 131.959 13.6875C131.373 13.6875 130.842 13.8014 130.367 14.0293C129.898 14.2572 129.495 14.5924 129.156 15.0352C128.824 15.4779 128.567 16.0247 128.385 16.6758C128.202 17.3268 128.111 18.0755 128.111 18.9219V19.8398C128.111 20.6927 128.202 21.4479 128.385 22.1055C128.567 22.7565 128.827 23.3066 129.166 23.7559C129.511 24.1986 129.918 24.5339 130.387 24.7617C130.862 24.9896 131.393 25.1035 131.979 25.1035C132.59 25.1035 133.134 24.9896 133.609 24.7617C134.085 24.5339 134.485 24.1986 134.811 23.7559C135.143 23.3066 135.393 22.7565 135.562 22.1055C135.732 21.4479 135.816 20.6927 135.816 19.8398ZM145.572 19.8496H141.969L141.949 18.3359H145.221C145.761 18.3359 146.233 18.2448 146.637 18.0625C147.04 17.8802 147.353 17.6198 147.574 17.2812C147.802 16.9362 147.916 16.526 147.916 16.0508C147.916 15.5299 147.815 15.1068 147.613 14.7812C147.418 14.4492 147.115 14.2083 146.705 14.0586C146.301 13.9023 145.787 13.8242 145.162 13.8242H142.389V26.5H140.504V12.2812H145.162C145.891 12.2812 146.542 12.3561 147.115 12.5059C147.688 12.6491 148.173 12.877 148.57 13.1895C148.974 13.4954 149.28 13.8861 149.488 14.3613C149.697 14.8366 149.801 15.4062 149.801 16.0703C149.801 16.6562 149.651 17.1868 149.352 17.6621C149.052 18.1309 148.635 18.515 148.102 18.8145C147.574 19.1139 146.956 19.306 146.246 19.3906L145.572 19.8496ZM145.484 26.5H141.227L142.291 24.9668H145.484C146.083 24.9668 146.591 24.8626 147.008 24.6543C147.431 24.446 147.753 24.153 147.975 23.7754C148.196 23.3913 148.307 22.9388 148.307 22.418C148.307 21.8906 148.212 21.4349 148.023 21.0508C147.835 20.6667 147.538 20.3704 147.135 20.1621C146.731 19.9538 146.21 19.8496 145.572 19.8496H142.887L142.906 18.3359H146.578L146.979 18.8828C147.662 18.9414 148.242 19.1367 148.717 19.4688C149.192 19.7943 149.553 20.2109 149.801 20.7188C150.055 21.2266 150.182 21.7865 150.182 22.3984C150.182 23.2839 149.986 24.0326 149.596 24.6445C149.212 25.25 148.668 25.7122 147.965 26.0312C147.262 26.3438 146.435 26.5 145.484 26.5ZM158.033 19.8496H154.43L154.41 18.3359H157.682C158.222 18.3359 158.694 18.2448 159.098 18.0625C159.501 17.8802 159.814 17.6198 160.035 17.2812C160.263 16.9362 160.377 16.526 160.377 16.0508C160.377 15.5299 160.276 15.1068 160.074 14.7812C159.879 14.4492 159.576 14.2083 159.166 14.0586C158.762 13.9023 158.248 13.8242 157.623 13.8242H154.85V26.5H152.965V12.2812H157.623C158.352 12.2812 159.003 12.3561 159.576 12.5059C160.149 12.6491 160.634 12.877 161.031 13.1895C161.435 13.4954 161.741 13.8861 161.949 14.3613C162.158 14.8366 162.262 15.4062 162.262 16.0703C162.262 16.6562 162.112 17.1868 161.812 17.6621C161.513 18.1309 161.096 18.515 160.562 18.8145C160.035 19.1139 159.417 19.306 158.707 19.3906L158.033 19.8496ZM157.945 26.5H153.688L154.752 24.9668H157.945C158.544 24.9668 159.052 24.8626 159.469 24.6543C159.892 24.446 160.214 24.153 160.436 23.7754C160.657 23.3913 160.768 22.9388 160.768 22.418C160.768 21.8906 160.673 21.4349 160.484 21.0508C160.296 20.6667 159.999 20.3704 159.596 20.1621C159.192 19.9538 158.671 19.8496 158.033 19.8496H155.348L155.367 18.3359H159.039L159.439 18.8828C160.123 18.9414 160.702 19.1367 161.178 19.4688C161.653 19.7943 162.014 20.2109 162.262 20.7188C162.516 21.2266 162.643 21.7865 162.643 22.3984C162.643 23.2839 162.447 24.0326 162.057 24.6445C161.673 25.25 161.129 25.7122 160.426 26.0312C159.723 26.3438 158.896 26.5 157.945 26.5ZM165.533 12.2812L169.225 19.4199L172.926 12.2812H175.064L170.162 21.1875V26.5H168.277V21.1875L163.375 12.2812H165.533Z" fill="white"/>
</svg>
