<svg width="82" height="22" viewBox="0 0 82 22" fill="none" xmlns="http://www.w3.org/2000/svg">
<path d="M10.9416 5.87842L12.3091 9.57408L16.0048 10.9416L12.3091 12.3091L10.9416 16.0048L9.57408 12.3091L5.87842 10.9416L9.57408 9.57408L10.9416 5.87842Z" fill="white"/>
<rect x="0.565685" y="10.9419" width="14.6741" height="14.6732" rx="7.3366" transform="rotate(-45 0.565685 10.9419)" stroke="#195A7F" stroke-width="0.8"/>
<path d="M30.1819 14.551V15.4417H24.5979V14.6624L27.3928 11.551C27.7366 11.1682 28.0022 10.844 28.1897 10.5784C28.3811 10.3088 28.5139 10.0686 28.5881 9.85767C28.6663 9.64282 28.7053 9.42407 28.7053 9.20142C28.7053 8.92017 28.6467 8.66626 28.5295 8.4397C28.4163 8.20923 28.2483 8.02563 28.0256 7.88892C27.803 7.7522 27.5334 7.68384 27.217 7.68384C26.8381 7.68384 26.5217 7.75806 26.2678 7.90649C26.0178 8.05103 25.8303 8.25415 25.7053 8.51587C25.5803 8.77759 25.5178 9.07837 25.5178 9.41821H24.4338C24.4338 8.93774 24.5393 8.49829 24.7502 8.09985C24.9612 7.70142 25.2737 7.38501 25.6877 7.15063C26.1018 6.91235 26.6116 6.79321 27.217 6.79321C27.7561 6.79321 28.217 6.88892 28.5999 7.08032C28.9827 7.26782 29.2756 7.53345 29.4788 7.8772C29.6858 8.21704 29.7893 8.61548 29.7893 9.07251C29.7893 9.32251 29.7463 9.57642 29.6604 9.83423C29.5784 10.0881 29.4631 10.342 29.3147 10.5959C29.1702 10.8499 29.0002 11.0999 28.8049 11.3459C28.6135 11.592 28.4084 11.8342 28.1897 12.0725L25.9045 14.551H30.1819ZM36.9319 14.551V15.4417H31.3479V14.6624L34.1428 11.551C34.4866 11.1682 34.7522 10.844 34.9397 10.5784C35.1311 10.3088 35.2639 10.0686 35.3381 9.85767C35.4163 9.64282 35.4553 9.42407 35.4553 9.20142C35.4553 8.92017 35.3967 8.66626 35.2795 8.4397C35.1663 8.20923 34.9983 8.02563 34.7756 7.88892C34.553 7.7522 34.2834 7.68384 33.967 7.68384C33.5881 7.68384 33.2717 7.75806 33.0178 7.90649C32.7678 8.05103 32.5803 8.25415 32.4553 8.51587C32.3303 8.77759 32.2678 9.07837 32.2678 9.41821H31.1838C31.1838 8.93774 31.2893 8.49829 31.5002 8.09985C31.7112 7.70142 32.0237 7.38501 32.4377 7.15063C32.8518 6.91235 33.3616 6.79321 33.967 6.79321C34.5061 6.79321 34.967 6.88892 35.3499 7.08032C35.7327 7.26782 36.0256 7.53345 36.2288 7.8772C36.4358 8.21704 36.5393 8.61548 36.5393 9.07251C36.5393 9.32251 36.4963 9.57642 36.4104 9.83423C36.3284 10.0881 36.2131 10.342 36.0647 10.5959C35.9202 10.8499 35.7502 11.0999 35.5549 11.3459C35.3635 11.592 35.1584 11.8342 34.9397 12.0725L32.6545 14.551H36.9319ZM43.6819 14.551V15.4417H38.0979V14.6624L40.8928 11.551C41.2366 11.1682 41.5022 10.844 41.6897 10.5784C41.8811 10.3088 42.0139 10.0686 42.0881 9.85767C42.1663 9.64282 42.2053 9.42407 42.2053 9.20142C42.2053 8.92017 42.1467 8.66626 42.0295 8.4397C41.9163 8.20923 41.7483 8.02563 41.5256 7.88892C41.303 7.7522 41.0334 7.68384 40.717 7.68384C40.3381 7.68384 40.0217 7.75806 39.7678 7.90649C39.5178 8.05103 39.3303 8.25415 39.2053 8.51587C39.0803 8.77759 39.0178 9.07837 39.0178 9.41821H37.9338C37.9338 8.93774 38.0393 8.49829 38.2502 8.09985C38.4612 7.70142 38.7737 7.38501 39.1877 7.15063C39.6018 6.91235 40.1116 6.79321 40.717 6.79321C41.2561 6.79321 41.717 6.88892 42.0999 7.08032C42.4827 7.26782 42.7756 7.53345 42.9788 7.8772C43.1858 8.21704 43.2893 8.61548 43.2893 9.07251C43.2893 9.32251 43.2463 9.57642 43.1604 9.83423C43.0784 10.0881 42.9631 10.342 42.8147 10.5959C42.6702 10.8499 42.5002 11.0999 42.3049 11.3459C42.1135 11.592 41.9084 11.8342 41.6897 12.0725L39.4045 14.551H43.6819ZM50.4319 14.551V15.4417H44.8479V14.6624L47.6428 11.551C47.9866 11.1682 48.2522 10.844 48.4397 10.5784C48.6311 10.3088 48.7639 10.0686 48.8381 9.85767C48.9163 9.64282 48.9553 9.42407 48.9553 9.20142C48.9553 8.92017 48.8967 8.66626 48.7795 8.4397C48.6663 8.20923 48.4983 8.02563 48.2756 7.88892C48.053 7.7522 47.7834 7.68384 47.467 7.68384C47.0881 7.68384 46.7717 7.75806 46.5178 7.90649C46.2678 8.05103 46.0803 8.25415 45.9553 8.51587C45.8303 8.77759 45.7678 9.07837 45.7678 9.41821H44.6838C44.6838 8.93774 44.7893 8.49829 45.0002 8.09985C45.2112 7.70142 45.5237 7.38501 45.9377 7.15063C46.3518 6.91235 46.8616 6.79321 47.467 6.79321C48.0061 6.79321 48.467 6.88892 48.8499 7.08032C49.2327 7.26782 49.5256 7.53345 49.7288 7.8772C49.9358 8.21704 50.0393 8.61548 50.0393 9.07251C50.0393 9.32251 49.9963 9.57642 49.9104 9.83423C49.8284 10.0881 49.7131 10.342 49.5647 10.5959C49.4202 10.8499 49.2502 11.0999 49.0549 11.3459C48.8635 11.592 48.6584 11.8342 48.4397 12.0725L46.1545 14.551H50.4319Z" fill="#D9D9D9"/>
<circle cx="73.0199" cy="10.8795" r="2.27992" transform="rotate(90 73.0199 10.8795)" stroke="white" stroke-width="1.5" stroke-linecap="round" stroke-linejoin="round"/>
<path d="M81 10.9282L77 17.8564H69L65 10.9282L69 4L77 4L81 10.9282Z" stroke="white" stroke-width="1.5" stroke-linecap="square"/>
</svg>
