<svg width="58" height="17" viewBox="0 0 58 17" fill="none" xmlns="http://www.w3.org/2000/svg">
    <path d="M7.89785 1.5L2 8.5L7.89785 15.5" stroke="#D9D9D9" stroke-width="2" />
    <line y1="-0.5" x2="6.70365" y2="-0.5" transform="matrix(-1 0 0 1 16 6.8999)" stroke="white" />
    <line y1="-0.5" x2="6.70365" y2="-0.5" transform="matrix(-1 0 0 1 13.791 8.44678)" stroke="white" />
    <line y1="-0.5" x2="6.70365" y2="-0.5" transform="matrix(-1 0 0 1 16 9.99365)" stroke="white" />
    <path
        d="M27.5762 12.0801V13H23.3105V12.0801H27.5762ZM23.5332 4.46875V13H22.4023V4.46875H23.5332ZM35.0527 8.46484V9.00391C35.0527 9.64453 34.9727 10.2188 34.8125 10.7266C34.6523 11.2344 34.4219 11.666 34.1211 12.0215C33.8203 12.377 33.459 12.6484 33.0371 12.8359C32.6191 13.0234 32.1504 13.1172 31.6309 13.1172C31.127 13.1172 30.6641 13.0234 30.2422 12.8359C29.8242 12.6484 29.4609 12.377 29.1523 12.0215C28.8477 11.666 28.6113 11.2344 28.4434 10.7266C28.2754 10.2188 28.1914 9.64453 28.1914 9.00391V8.46484C28.1914 7.82422 28.2734 7.25195 28.4375 6.74805C28.6055 6.24023 28.8418 5.80859 29.1465 5.45312C29.4512 5.09375 29.8125 4.82031 30.2305 4.63281C30.6523 4.44531 31.1152 4.35156 31.6191 4.35156C32.1387 4.35156 32.6074 4.44531 33.0254 4.63281C33.4473 4.82031 33.8086 5.09375 34.1094 5.45312C34.4141 5.80859 34.6465 6.24023 34.8066 6.74805C34.9707 7.25195 35.0527 7.82422 35.0527 8.46484ZM33.9336 9.00391V8.45312C33.9336 7.94531 33.8809 7.49609 33.7754 7.10547C33.6738 6.71484 33.5234 6.38672 33.3242 6.12109C33.125 5.85547 32.8809 5.6543 32.5918 5.51758C32.3066 5.38086 31.9824 5.3125 31.6191 5.3125C31.2676 5.3125 30.9492 5.38086 30.6641 5.51758C30.3828 5.6543 30.1406 5.85547 29.9375 6.12109C29.7383 6.38672 29.584 6.71484 29.4746 7.10547C29.3652 7.49609 29.3105 7.94531 29.3105 8.45312V9.00391C29.3105 9.51562 29.3652 9.96875 29.4746 10.3633C29.584 10.7539 29.7402 11.084 29.9434 11.3535C30.1504 11.6191 30.3945 11.8203 30.6758 11.957C30.9609 12.0938 31.2793 12.1621 31.6309 12.1621C31.998 12.1621 32.3242 12.0938 32.6094 11.957C32.8945 11.8203 33.1348 11.6191 33.3301 11.3535C33.5293 11.084 33.6797 10.7539 33.7812 10.3633C33.8828 9.96875 33.9336 9.51562 33.9336 9.00391ZM39.7871 9.00977H37.625L37.6133 8.10156H39.5762C39.9004 8.10156 40.1836 8.04688 40.4258 7.9375C40.668 7.82812 40.8555 7.67188 40.9883 7.46875C41.125 7.26172 41.1934 7.01562 41.1934 6.73047C41.1934 6.41797 41.1328 6.16406 41.0117 5.96875C40.8945 5.76953 40.7129 5.625 40.4668 5.53516C40.2246 5.44141 39.916 5.39453 39.541 5.39453H37.877V13H36.7461V4.46875H39.541C39.9785 4.46875 40.3691 4.51367 40.7129 4.60352C41.0566 4.68945 41.3477 4.82617 41.5859 5.01367C41.8281 5.19727 42.0117 5.43164 42.1367 5.7168C42.2617 6.00195 42.3242 6.34375 42.3242 6.74219C42.3242 7.09375 42.2344 7.41211 42.0547 7.69727C41.875 7.97852 41.625 8.20898 41.3047 8.38867C40.9883 8.56836 40.6172 8.68359 40.1914 8.73438L39.7871 9.00977ZM39.7344 13H37.1797L37.8184 12.0801H39.7344C40.0938 12.0801 40.3984 12.0176 40.6484 11.8926C40.9023 11.7676 41.0957 11.5918 41.2285 11.3652C41.3613 11.1348 41.4277 10.8633 41.4277 10.5508C41.4277 10.2344 41.3711 9.96094 41.2578 9.73047C41.1445 9.5 40.9668 9.32227 40.7246 9.19727C40.4824 9.07227 40.1699 9.00977 39.7871 9.00977H38.1758L38.1875 8.10156H40.3906L40.6309 8.42969C41.041 8.46484 41.3887 8.58203 41.6738 8.78125C41.959 8.97656 42.1758 9.22656 42.3242 9.53125C42.4766 9.83594 42.5527 10.1719 42.5527 10.5391C42.5527 11.0703 42.4355 11.5195 42.2012 11.8867C41.9707 12.25 41.6445 12.5273 41.2227 12.7188C40.8008 12.9062 40.3047 13 39.7344 13ZM47.2637 9.00977H45.1016L45.0898 8.10156H47.0527C47.377 8.10156 47.6602 8.04688 47.9023 7.9375C48.1445 7.82812 48.332 7.67188 48.4648 7.46875C48.6016 7.26172 48.6699 7.01562 48.6699 6.73047C48.6699 6.41797 48.6094 6.16406 48.4883 5.96875C48.3711 5.76953 48.1895 5.625 47.9434 5.53516C47.7012 5.44141 47.3926 5.39453 47.0176 5.39453H45.3535V13H44.2227V4.46875H47.0176C47.4551 4.46875 47.8457 4.51367 48.1895 4.60352C48.5332 4.68945 48.8242 4.82617 49.0625 5.01367C49.3047 5.19727 49.4883 5.43164 49.6133 5.7168C49.7383 6.00195 49.8008 6.34375 49.8008 6.74219C49.8008 7.09375 49.7109 7.41211 49.5312 7.69727C49.3516 7.97852 49.1016 8.20898 48.7812 8.38867C48.4648 8.56836 48.0938 8.68359 47.668 8.73438L47.2637 9.00977ZM47.2109 13H44.6562L45.2949 12.0801H47.2109C47.5703 12.0801 47.875 12.0176 48.125 11.8926C48.3789 11.7676 48.5723 11.5918 48.7051 11.3652C48.8379 11.1348 48.9043 10.8633 48.9043 10.5508C48.9043 10.2344 48.8477 9.96094 48.7344 9.73047C48.6211 9.5 48.4434 9.32227 48.2012 9.19727C47.959 9.07227 47.6465 9.00977 47.2637 9.00977H45.6523L45.6641 8.10156H47.8672L48.1074 8.42969C48.5176 8.46484 48.8652 8.58203 49.1504 8.78125C49.4355 8.97656 49.6523 9.22656 49.8008 9.53125C49.9531 9.83594 50.0293 10.1719 50.0293 10.5391C50.0293 11.0703 49.9121 11.5195 49.6777 11.8867C49.4473 12.25 49.1211 12.5273 48.6992 12.7188C48.2773 12.9062 47.7812 13 47.2109 13ZM51.7637 4.46875L53.9785 8.75195L56.1992 4.46875H57.4824L54.541 9.8125V13H53.4102V9.8125L50.4688 4.46875H51.7637Z"
        fill="#D9D9D9" />
</svg>