<svg width="360" height="42" viewBox="0 0 360 42" fill="none" xmlns="http://www.w3.org/2000/svg">
<rect x="0.3" y="0.3" width="359.4" height="41.4" fill="black" fill-opacity="0.25"/>
<rect x="0.3" y="0.3" width="359.4" height="41.4" stroke="#67170D" stroke-width="0.6"/>
<mask id="path-2-outside-1_355_328" maskUnits="userSpaceOnUse" x="14.0469" y="13.5" width="190" height="12" fill="black">
<rect fill="white" x="14.0469" y="13.5" width="190" height="12"/>
<path d="M15.7812 24.5H14.5156V16.9219C14.5156 16.3958 14.6432 15.9167 14.8984 15.4844C15.1589 15.0469 15.5052 14.6979 15.9375 14.4375C16.375 14.1771 16.8594 14.0469 17.3906 14.0469H22.3047C22.8307 14.0469 23.3099 14.1771 23.7422 14.4375C24.1797 14.6979 24.5286 15.0469 24.7891 15.4844C25.0495 15.9167 25.1797 16.3958 25.1797 16.9219V19.1484C25.1797 19.6797 25.0495 20.1641 24.7891 20.6016C24.5286 21.0339 24.1797 21.3802 23.7422 21.6406C23.3099 21.8958 22.8307 22.0234 22.3047 22.0234H15.7812V24.5ZM22.3047 20.7578C22.7474 20.7578 23.125 20.6016 23.4375 20.2891C23.75 19.9714 23.9062 19.5911 23.9062 19.1484V16.9219C23.9062 16.4792 23.75 16.1016 23.4375 15.7891C23.125 15.4766 22.7474 15.3203 22.3047 15.3203H17.3906C16.9479 15.3203 16.5677 15.4766 16.25 15.7891C15.9375 16.1016 15.7812 16.4792 15.7812 16.9219V20.7578H22.3047ZM37.125 24.5H35.8594V20.6406H27.4688V24.5H26.2031V20.5859C26.2031 19.9557 26.401 19.3724 26.7969 18.8359L29.6016 15.1719C29.8776 14.8177 30.2161 14.5417 30.6172 14.3438C31.0182 14.1458 31.4401 14.0469 31.8828 14.0469H35C35.5885 14.0469 36.0885 14.2552 36.5 14.6719C36.9167 15.0885 37.125 15.5885 37.125 16.1719V24.5ZM35.8594 19.375V16.1719C35.8594 15.9375 35.7734 15.737 35.6016 15.5703C35.4349 15.4036 35.2344 15.3203 35 15.3203H31.8828C31.388 15.3203 30.9635 15.5286 30.6094 15.9453L27.9844 19.375H35.8594ZM49.2344 24.5H47.9609V22.6172C47.9609 22.0703 47.7161 21.6224 47.2266 21.2734L45.2031 19.9609H43.0547C42.5599 19.9609 42.1354 20.1693 41.7812 20.5859L39.7969 23.1719V24.5H38.5312V16.9219C38.5312 16.3958 38.6589 15.9167 38.9141 15.4844C39.1745 15.0469 39.5208 14.6979 39.9531 14.4375C40.3906 14.1771 40.875 14.0469 41.4062 14.0469H46.9141C47.5026 14.0469 48.0052 14.2552 48.4219 14.6719C48.8385 15.0885 49.0469 15.5885 49.0469 16.1719V17.8281C49.0469 18.3281 48.8958 18.7656 48.5938 19.1406C48.2917 19.5156 47.9062 19.7656 47.4375 19.8906L47.9219 20.2031C48.3333 20.4792 48.6536 20.8281 48.8828 21.25C49.1172 21.6719 49.2344 22.1276 49.2344 22.6172V24.5ZM39.7969 21.0859L40.7734 19.8125C41.0495 19.4583 41.388 19.1823 41.7891 18.9844C42.1901 18.7865 42.612 18.6875 43.0547 18.6875H46.9141C47.1536 18.6875 47.3568 18.6042 47.5234 18.4375C47.6901 18.2708 47.7734 18.0677 47.7734 17.8281V16.1719C47.7734 15.9375 47.6901 15.737 47.5234 15.5703C47.3568 15.4036 47.1536 15.3203 46.9141 15.3203H41.4062C40.9635 15.3203 40.5833 15.4766 40.2656 15.7891C39.9531 16.1016 39.7969 16.4792 39.7969 16.9219V21.0859ZM56.1094 24.5H54.8359V15.3203H49.9375V14.0469H61.0078V15.3203H56.1094V24.5ZM68.375 24.5H67.1094V21.25C66.3594 21.2344 65.6693 21.0234 65.0391 20.6172L63.25 19.4609C62.8906 19.2266 62.6094 18.9245 62.4062 18.5547C62.2083 18.1849 62.1094 17.7865 62.1094 17.3594V14.0469H63.375V17.3594C63.375 17.7812 63.5625 18.1276 63.9375 18.3984L65.7266 19.5547C66.1745 19.8411 66.6562 19.9844 67.1719 19.9844H68.3125C68.8229 19.9844 69.3021 19.8411 69.75 19.5547L71.5391 18.3984C71.9141 18.1276 72.1016 17.7812 72.1016 17.3594V14.0469H73.375V17.3594C73.375 17.7865 73.2734 18.1849 73.0703 18.5547C72.8724 18.9245 72.5938 19.2266 72.2344 19.4609L70.4453 20.6172C69.8151 21.0234 69.125 21.2344 68.375 21.25V24.5ZM79.1172 19.3516H77.9219V18.1562H79.1172V19.3516ZM79.1172 23.3828H77.9219V22.1875H79.1172V23.3828ZM97.0078 24.5H89.0391C88.5547 24.5 88.1406 24.3281 87.7969 23.9844C87.4531 23.6406 87.2812 23.2266 87.2812 22.7422V21.4062C87.2812 20.875 87.4089 20.3932 87.6641 19.9609C87.9245 19.5234 88.2708 19.1771 88.7031 18.9219C89.1406 18.6615 89.625 18.5312 90.1562 18.5312H94.2812C94.724 18.5312 95.1016 18.375 95.4141 18.0625C95.7266 17.7448 95.8828 17.3646 95.8828 16.9219C95.8828 16.4792 95.7266 16.1016 95.4141 15.7891C95.1016 15.4766 94.724 15.3203 94.2812 15.3203H87.5547V14.0469H94.2812C94.8073 14.0469 95.2865 14.1771 95.7188 14.4375C96.1562 14.6979 96.5052 15.0469 96.7656 15.4844C97.026 15.9167 97.1562 16.3958 97.1562 16.9219C97.1562 17.4531 97.026 17.9375 96.7656 18.375C96.5052 18.8073 96.1562 19.1536 95.7188 19.4141C95.2865 19.6693 94.8073 19.7969 94.2812 19.7969H90.1562C89.7135 19.7969 89.3333 19.9557 89.0156 20.2734C88.7031 20.5859 88.5469 20.9635 88.5469 21.4062V22.7422C88.5469 22.8776 88.5938 22.9922 88.6875 23.0859C88.7865 23.1797 88.9036 23.2266 89.0391 23.2266H97.0078V24.5ZM101.023 24.5H99.3359L104.672 18.4141C105.052 17.9661 105.242 17.4635 105.242 16.9062V15.8047C105.242 15.6693 105.195 15.5547 105.102 15.4609C105.008 15.3672 104.893 15.3203 104.758 15.3203H98.0156V14.0469H104.758C105.242 14.0469 105.656 14.2188 106 14.5625C106.344 14.9062 106.516 15.3203 106.516 15.8047V16.9062C106.516 17.7708 106.219 18.5547 105.625 19.2578L101.023 24.5ZM116.078 21.3672H111.062V20.1719H116.078V21.3672ZM128.125 24.5H124.734C123.974 24.5 123.284 24.3151 122.664 23.9453C122.044 23.5755 121.549 23.0807 121.18 22.4609C120.81 21.8359 120.625 21.1458 120.625 20.3906V18.1562C120.625 17.401 120.81 16.7135 121.18 16.0938C121.549 15.4688 122.044 14.9714 122.664 14.6016C123.284 14.2318 123.974 14.0469 124.734 14.0469H128.125C128.88 14.0469 129.568 14.2318 130.188 14.6016C130.812 14.9714 131.307 15.4688 131.672 16.0938C132.042 16.7135 132.227 17.401 132.227 18.1562V20.3906C132.227 21.1458 132.042 21.8359 131.672 22.4609C131.307 23.0807 130.812 23.5755 130.188 23.9453C129.568 24.3151 128.88 24.5 128.125 24.5ZM128.125 23.2266C128.646 23.2266 129.12 23.099 129.547 22.8438C129.979 22.5885 130.323 22.2474 130.578 21.8203C130.833 21.388 130.961 20.9115 130.961 20.3906V18.1562C130.961 17.6354 130.833 17.1615 130.578 16.7344C130.323 16.3021 129.979 15.9583 129.547 15.7031C129.12 15.4479 128.646 15.3203 128.125 15.3203H124.734C124.208 15.3203 123.732 15.4479 123.305 15.7031C122.878 15.9583 122.534 16.3021 122.273 16.7344C122.018 17.1615 121.891 17.6354 121.891 18.1562V20.3906C121.891 20.9115 122.018 21.388 122.273 21.8203C122.534 22.2474 122.878 22.5885 123.305 22.8438C123.732 23.099 124.208 23.2266 124.734 23.2266H128.125ZM143.977 24.5H142.703V22.0391H136.883C136.273 22.0391 135.716 21.8906 135.211 21.5938C134.711 21.2917 134.31 20.8906 134.008 20.3906C133.711 19.8854 133.562 19.3255 133.562 18.7109V14.0469H134.828V18.7109C134.828 19.2786 135.029 19.763 135.43 20.1641C135.836 20.5651 136.32 20.7656 136.883 20.7656H142.703V14.0469H143.977V24.5ZM153.547 21.3672H148.531V20.1719H153.547V21.3672ZM167.82 24.5H159.852C159.367 24.5 158.953 24.3281 158.609 23.9844C158.266 23.6406 158.094 23.2266 158.094 22.7422V21.4062C158.094 20.875 158.221 20.3932 158.477 19.9609C158.737 19.5234 159.083 19.1771 159.516 18.9219C159.953 18.6615 160.438 18.5312 160.969 18.5312H165.094C165.536 18.5312 165.914 18.375 166.227 18.0625C166.539 17.7448 166.695 17.3646 166.695 16.9219C166.695 16.4792 166.539 16.1016 166.227 15.7891C165.914 15.4766 165.536 15.3203 165.094 15.3203H158.367V14.0469H165.094C165.62 14.0469 166.099 14.1771 166.531 14.4375C166.969 14.6979 167.318 15.0469 167.578 15.4844C167.839 15.9167 167.969 16.3958 167.969 16.9219C167.969 17.4531 167.839 17.9375 167.578 18.375C167.318 18.8073 166.969 19.1536 166.531 19.4141C166.099 19.6693 165.62 19.7969 165.094 19.7969H160.969C160.526 19.7969 160.146 19.9557 159.828 20.2734C159.516 20.5859 159.359 20.9635 159.359 21.4062V22.7422C159.359 22.8776 159.406 22.9922 159.5 23.0859C159.599 23.1797 159.716 23.2266 159.852 23.2266H167.82V24.5ZM176.719 24.5H173.328C172.568 24.5 171.878 24.3151 171.258 23.9453C170.638 23.5755 170.143 23.0807 169.773 22.4609C169.404 21.8359 169.219 21.1458 169.219 20.3906V18.1562C169.219 17.401 169.404 16.7135 169.773 16.0938C170.143 15.4688 170.638 14.9714 171.258 14.6016C171.878 14.2318 172.568 14.0469 173.328 14.0469H176.719C177.474 14.0469 178.161 14.2318 178.781 14.6016C179.406 14.9714 179.901 15.4688 180.266 16.0938C180.635 16.7135 180.82 17.401 180.82 18.1562V20.3906C180.82 21.1458 180.635 21.8359 180.266 22.4609C179.901 23.0807 179.406 23.5755 178.781 23.9453C178.161 24.3151 177.474 24.5 176.719 24.5ZM176.719 23.2266C177.24 23.2266 177.714 23.099 178.141 22.8438C178.573 22.5885 178.917 22.2474 179.172 21.8203C179.427 21.388 179.555 20.9115 179.555 20.3906V18.1562C179.555 17.6354 179.427 17.1615 179.172 16.7344C178.917 16.3021 178.573 15.9583 178.141 15.7031C177.714 15.4479 177.24 15.3203 176.719 15.3203H173.328C172.802 15.3203 172.326 15.4479 171.898 15.7031C171.471 15.9583 171.128 16.3021 170.867 16.7344C170.612 17.1615 170.484 17.6354 170.484 18.1562V20.3906C170.484 20.9115 170.612 21.388 170.867 21.8203C171.128 22.2474 171.471 22.5885 171.898 22.8438C172.326 23.099 172.802 23.2266 173.328 23.2266H176.719ZM191.727 24.5H183.758C183.273 24.5 182.859 24.3281 182.516 23.9844C182.172 23.6406 182 23.2266 182 22.7422V21.4062C182 20.875 182.128 20.3932 182.383 19.9609C182.643 19.5234 182.99 19.1771 183.422 18.9219C183.859 18.6615 184.344 18.5312 184.875 18.5312H189C189.443 18.5312 189.82 18.375 190.133 18.0625C190.445 17.7448 190.602 17.3646 190.602 16.9219C190.602 16.4792 190.445 16.1016 190.133 15.7891C189.82 15.4766 189.443 15.3203 189 15.3203H182.273V14.0469H189C189.526 14.0469 190.005 14.1771 190.438 14.4375C190.875 14.6979 191.224 15.0469 191.484 15.4844C191.745 15.9167 191.875 16.3958 191.875 16.9219C191.875 17.4531 191.745 17.9375 191.484 18.375C191.224 18.8073 190.875 19.1536 190.438 19.4141C190.005 19.6693 189.526 19.7969 189 19.7969H184.875C184.432 19.7969 184.052 19.9557 183.734 20.2734C183.422 20.5859 183.266 20.9635 183.266 21.4062V22.7422C183.266 22.8776 183.312 22.9922 183.406 23.0859C183.505 23.1797 183.622 23.2266 183.758 23.2266H191.727V24.5ZM200 24.5H193.125V23.2266H200C200.484 23.2266 200.896 23.0573 201.234 22.7188C201.578 22.375 201.75 21.9609 201.75 21.4766C201.75 20.9922 201.578 20.5781 201.234 20.2344C200.896 19.8906 200.484 19.7188 200 19.7188H196.023C195.497 19.7188 195.016 19.5911 194.578 19.3359C194.141 19.0755 193.792 18.7292 193.531 18.2969C193.276 17.8594 193.148 17.375 193.148 16.8438V15.8047C193.148 15.3203 193.32 14.9062 193.664 14.5625C194.008 14.2188 194.422 14.0469 194.906 14.0469H202.656V15.3203H194.906C194.771 15.3203 194.656 15.3672 194.562 15.4609C194.469 15.5547 194.422 15.6693 194.422 15.8047V16.8438C194.422 17.2865 194.578 17.6667 194.891 17.9844C195.203 18.2969 195.581 18.4531 196.023 18.4531H200C200.552 18.4531 201.057 18.5885 201.516 18.8594C201.974 19.1302 202.339 19.4948 202.609 19.9531C202.885 20.4115 203.023 20.9193 203.023 21.4766C203.023 22.0286 202.885 22.5339 202.609 22.9922C202.339 23.4505 201.974 23.8177 201.516 24.0938C201.057 24.3646 200.552 24.5 200 24.5Z"/>
</mask>
<path d="M15.7812 24.5H14.5156V16.9219C14.5156 16.3958 14.6432 15.9167 14.8984 15.4844C15.1589 15.0469 15.5052 14.6979 15.9375 14.4375C16.375 14.1771 16.8594 14.0469 17.3906 14.0469H22.3047C22.8307 14.0469 23.3099 14.1771 23.7422 14.4375C24.1797 14.6979 24.5286 15.0469 24.7891 15.4844C25.0495 15.9167 25.1797 16.3958 25.1797 16.9219V19.1484C25.1797 19.6797 25.0495 20.1641 24.7891 20.6016C24.5286 21.0339 24.1797 21.3802 23.7422 21.6406C23.3099 21.8958 22.8307 22.0234 22.3047 22.0234H15.7812V24.5ZM22.3047 20.7578C22.7474 20.7578 23.125 20.6016 23.4375 20.2891C23.75 19.9714 23.9062 19.5911 23.9062 19.1484V16.9219C23.9062 16.4792 23.75 16.1016 23.4375 15.7891C23.125 15.4766 22.7474 15.3203 22.3047 15.3203H17.3906C16.9479 15.3203 16.5677 15.4766 16.25 15.7891C15.9375 16.1016 15.7812 16.4792 15.7812 16.9219V20.7578H22.3047ZM37.125 24.5H35.8594V20.6406H27.4688V24.5H26.2031V20.5859C26.2031 19.9557 26.401 19.3724 26.7969 18.8359L29.6016 15.1719C29.8776 14.8177 30.2161 14.5417 30.6172 14.3438C31.0182 14.1458 31.4401 14.0469 31.8828 14.0469H35C35.5885 14.0469 36.0885 14.2552 36.5 14.6719C36.9167 15.0885 37.125 15.5885 37.125 16.1719V24.5ZM35.8594 19.375V16.1719C35.8594 15.9375 35.7734 15.737 35.6016 15.5703C35.4349 15.4036 35.2344 15.3203 35 15.3203H31.8828C31.388 15.3203 30.9635 15.5286 30.6094 15.9453L27.9844 19.375H35.8594ZM49.2344 24.5H47.9609V22.6172C47.9609 22.0703 47.7161 21.6224 47.2266 21.2734L45.2031 19.9609H43.0547C42.5599 19.9609 42.1354 20.1693 41.7812 20.5859L39.7969 23.1719V24.5H38.5312V16.9219C38.5312 16.3958 38.6589 15.9167 38.9141 15.4844C39.1745 15.0469 39.5208 14.6979 39.9531 14.4375C40.3906 14.1771 40.875 14.0469 41.4062 14.0469H46.9141C47.5026 14.0469 48.0052 14.2552 48.4219 14.6719C48.8385 15.0885 49.0469 15.5885 49.0469 16.1719V17.8281C49.0469 18.3281 48.8958 18.7656 48.5938 19.1406C48.2917 19.5156 47.9062 19.7656 47.4375 19.8906L47.9219 20.2031C48.3333 20.4792 48.6536 20.8281 48.8828 21.25C49.1172 21.6719 49.2344 22.1276 49.2344 22.6172V24.5ZM39.7969 21.0859L40.7734 19.8125C41.0495 19.4583 41.388 19.1823 41.7891 18.9844C42.1901 18.7865 42.612 18.6875 43.0547 18.6875H46.9141C47.1536 18.6875 47.3568 18.6042 47.5234 18.4375C47.6901 18.2708 47.7734 18.0677 47.7734 17.8281V16.1719C47.7734 15.9375 47.6901 15.737 47.5234 15.5703C47.3568 15.4036 47.1536 15.3203 46.9141 15.3203H41.4062C40.9635 15.3203 40.5833 15.4766 40.2656 15.7891C39.9531 16.1016 39.7969 16.4792 39.7969 16.9219V21.0859ZM56.1094 24.5H54.8359V15.3203H49.9375V14.0469H61.0078V15.3203H56.1094V24.5ZM68.375 24.5H67.1094V21.25C66.3594 21.2344 65.6693 21.0234 65.0391 20.6172L63.25 19.4609C62.8906 19.2266 62.6094 18.9245 62.4062 18.5547C62.2083 18.1849 62.1094 17.7865 62.1094 17.3594V14.0469H63.375V17.3594C63.375 17.7812 63.5625 18.1276 63.9375 18.3984L65.7266 19.5547C66.1745 19.8411 66.6562 19.9844 67.1719 19.9844H68.3125C68.8229 19.9844 69.3021 19.8411 69.75 19.5547L71.5391 18.3984C71.9141 18.1276 72.1016 17.7812 72.1016 17.3594V14.0469H73.375V17.3594C73.375 17.7865 73.2734 18.1849 73.0703 18.5547C72.8724 18.9245 72.5938 19.2266 72.2344 19.4609L70.4453 20.6172C69.8151 21.0234 69.125 21.2344 68.375 21.25V24.5ZM79.1172 19.3516H77.9219V18.1562H79.1172V19.3516ZM79.1172 23.3828H77.9219V22.1875H79.1172V23.3828ZM97.0078 24.5H89.0391C88.5547 24.5 88.1406 24.3281 87.7969 23.9844C87.4531 23.6406 87.2812 23.2266 87.2812 22.7422V21.4062C87.2812 20.875 87.4089 20.3932 87.6641 19.9609C87.9245 19.5234 88.2708 19.1771 88.7031 18.9219C89.1406 18.6615 89.625 18.5312 90.1562 18.5312H94.2812C94.724 18.5312 95.1016 18.375 95.4141 18.0625C95.7266 17.7448 95.8828 17.3646 95.8828 16.9219C95.8828 16.4792 95.7266 16.1016 95.4141 15.7891C95.1016 15.4766 94.724 15.3203 94.2812 15.3203H87.5547V14.0469H94.2812C94.8073 14.0469 95.2865 14.1771 95.7188 14.4375C96.1562 14.6979 96.5052 15.0469 96.7656 15.4844C97.026 15.9167 97.1562 16.3958 97.1562 16.9219C97.1562 17.4531 97.026 17.9375 96.7656 18.375C96.5052 18.8073 96.1562 19.1536 95.7188 19.4141C95.2865 19.6693 94.8073 19.7969 94.2812 19.7969H90.1562C89.7135 19.7969 89.3333 19.9557 89.0156 20.2734C88.7031 20.5859 88.5469 20.9635 88.5469 21.4062V22.7422C88.5469 22.8776 88.5938 22.9922 88.6875 23.0859C88.7865 23.1797 88.9036 23.2266 89.0391 23.2266H97.0078V24.5ZM101.023 24.5H99.3359L104.672 18.4141C105.052 17.9661 105.242 17.4635 105.242 16.9062V15.8047C105.242 15.6693 105.195 15.5547 105.102 15.4609C105.008 15.3672 104.893 15.3203 104.758 15.3203H98.0156V14.0469H104.758C105.242 14.0469 105.656 14.2188 106 14.5625C106.344 14.9062 106.516 15.3203 106.516 15.8047V16.9062C106.516 17.7708 106.219 18.5547 105.625 19.2578L101.023 24.5ZM116.078 21.3672H111.062V20.1719H116.078V21.3672ZM128.125 24.5H124.734C123.974 24.5 123.284 24.3151 122.664 23.9453C122.044 23.5755 121.549 23.0807 121.18 22.4609C120.81 21.8359 120.625 21.1458 120.625 20.3906V18.1562C120.625 17.401 120.81 16.7135 121.18 16.0938C121.549 15.4688 122.044 14.9714 122.664 14.6016C123.284 14.2318 123.974 14.0469 124.734 14.0469H128.125C128.88 14.0469 129.568 14.2318 130.188 14.6016C130.812 14.9714 131.307 15.4688 131.672 16.0938C132.042 16.7135 132.227 17.401 132.227 18.1562V20.3906C132.227 21.1458 132.042 21.8359 131.672 22.4609C131.307 23.0807 130.812 23.5755 130.188 23.9453C129.568 24.3151 128.88 24.5 128.125 24.5ZM128.125 23.2266C128.646 23.2266 129.12 23.099 129.547 22.8438C129.979 22.5885 130.323 22.2474 130.578 21.8203C130.833 21.388 130.961 20.9115 130.961 20.3906V18.1562C130.961 17.6354 130.833 17.1615 130.578 16.7344C130.323 16.3021 129.979 15.9583 129.547 15.7031C129.12 15.4479 128.646 15.3203 128.125 15.3203H124.734C124.208 15.3203 123.732 15.4479 123.305 15.7031C122.878 15.9583 122.534 16.3021 122.273 16.7344C122.018 17.1615 121.891 17.6354 121.891 18.1562V20.3906C121.891 20.9115 122.018 21.388 122.273 21.8203C122.534 22.2474 122.878 22.5885 123.305 22.8438C123.732 23.099 124.208 23.2266 124.734 23.2266H128.125ZM143.977 24.5H142.703V22.0391H136.883C136.273 22.0391 135.716 21.8906 135.211 21.5938C134.711 21.2917 134.31 20.8906 134.008 20.3906C133.711 19.8854 133.562 19.3255 133.562 18.7109V14.0469H134.828V18.7109C134.828 19.2786 135.029 19.763 135.43 20.1641C135.836 20.5651 136.32 20.7656 136.883 20.7656H142.703V14.0469H143.977V24.5ZM153.547 21.3672H148.531V20.1719H153.547V21.3672ZM167.82 24.5H159.852C159.367 24.5 158.953 24.3281 158.609 23.9844C158.266 23.6406 158.094 23.2266 158.094 22.7422V21.4062C158.094 20.875 158.221 20.3932 158.477 19.9609C158.737 19.5234 159.083 19.1771 159.516 18.9219C159.953 18.6615 160.438 18.5312 160.969 18.5312H165.094C165.536 18.5312 165.914 18.375 166.227 18.0625C166.539 17.7448 166.695 17.3646 166.695 16.9219C166.695 16.4792 166.539 16.1016 166.227 15.7891C165.914 15.4766 165.536 15.3203 165.094 15.3203H158.367V14.0469H165.094C165.62 14.0469 166.099 14.1771 166.531 14.4375C166.969 14.6979 167.318 15.0469 167.578 15.4844C167.839 15.9167 167.969 16.3958 167.969 16.9219C167.969 17.4531 167.839 17.9375 167.578 18.375C167.318 18.8073 166.969 19.1536 166.531 19.4141C166.099 19.6693 165.62 19.7969 165.094 19.7969H160.969C160.526 19.7969 160.146 19.9557 159.828 20.2734C159.516 20.5859 159.359 20.9635 159.359 21.4062V22.7422C159.359 22.8776 159.406 22.9922 159.5 23.0859C159.599 23.1797 159.716 23.2266 159.852 23.2266H167.82V24.5ZM176.719 24.5H173.328C172.568 24.5 171.878 24.3151 171.258 23.9453C170.638 23.5755 170.143 23.0807 169.773 22.4609C169.404 21.8359 169.219 21.1458 169.219 20.3906V18.1562C169.219 17.401 169.404 16.7135 169.773 16.0938C170.143 15.4688 170.638 14.9714 171.258 14.6016C171.878 14.2318 172.568 14.0469 173.328 14.0469H176.719C177.474 14.0469 178.161 14.2318 178.781 14.6016C179.406 14.9714 179.901 15.4688 180.266 16.0938C180.635 16.7135 180.82 17.401 180.82 18.1562V20.3906C180.82 21.1458 180.635 21.8359 180.266 22.4609C179.901 23.0807 179.406 23.5755 178.781 23.9453C178.161 24.3151 177.474 24.5 176.719 24.5ZM176.719 23.2266C177.24 23.2266 177.714 23.099 178.141 22.8438C178.573 22.5885 178.917 22.2474 179.172 21.8203C179.427 21.388 179.555 20.9115 179.555 20.3906V18.1562C179.555 17.6354 179.427 17.1615 179.172 16.7344C178.917 16.3021 178.573 15.9583 178.141 15.7031C177.714 15.4479 177.24 15.3203 176.719 15.3203H173.328C172.802 15.3203 172.326 15.4479 171.898 15.7031C171.471 15.9583 171.128 16.3021 170.867 16.7344C170.612 17.1615 170.484 17.6354 170.484 18.1562V20.3906C170.484 20.9115 170.612 21.388 170.867 21.8203C171.128 22.2474 171.471 22.5885 171.898 22.8438C172.326 23.099 172.802 23.2266 173.328 23.2266H176.719ZM191.727 24.5H183.758C183.273 24.5 182.859 24.3281 182.516 23.9844C182.172 23.6406 182 23.2266 182 22.7422V21.4062C182 20.875 182.128 20.3932 182.383 19.9609C182.643 19.5234 182.99 19.1771 183.422 18.9219C183.859 18.6615 184.344 18.5312 184.875 18.5312H189C189.443 18.5312 189.82 18.375 190.133 18.0625C190.445 17.7448 190.602 17.3646 190.602 16.9219C190.602 16.4792 190.445 16.1016 190.133 15.7891C189.82 15.4766 189.443 15.3203 189 15.3203H182.273V14.0469H189C189.526 14.0469 190.005 14.1771 190.438 14.4375C190.875 14.6979 191.224 15.0469 191.484 15.4844C191.745 15.9167 191.875 16.3958 191.875 16.9219C191.875 17.4531 191.745 17.9375 191.484 18.375C191.224 18.8073 190.875 19.1536 190.438 19.4141C190.005 19.6693 189.526 19.7969 189 19.7969H184.875C184.432 19.7969 184.052 19.9557 183.734 20.2734C183.422 20.5859 183.266 20.9635 183.266 21.4062V22.7422C183.266 22.8776 183.312 22.9922 183.406 23.0859C183.505 23.1797 183.622 23.2266 183.758 23.2266H191.727V24.5ZM200 24.5H193.125V23.2266H200C200.484 23.2266 200.896 23.0573 201.234 22.7188C201.578 22.375 201.75 21.9609 201.75 21.4766C201.75 20.9922 201.578 20.5781 201.234 20.2344C200.896 19.8906 200.484 19.7188 200 19.7188H196.023C195.497 19.7188 195.016 19.5911 194.578 19.3359C194.141 19.0755 193.792 18.7292 193.531 18.2969C193.276 17.8594 193.148 17.375 193.148 16.8438V15.8047C193.148 15.3203 193.32 14.9062 193.664 14.5625C194.008 14.2188 194.422 14.0469 194.906 14.0469H202.656V15.3203H194.906C194.771 15.3203 194.656 15.3672 194.562 15.4609C194.469 15.5547 194.422 15.6693 194.422 15.8047V16.8438C194.422 17.2865 194.578 17.6667 194.891 17.9844C195.203 18.2969 195.581 18.4531 196.023 18.4531H200C200.552 18.4531 201.057 18.5885 201.516 18.8594C201.974 19.1302 202.339 19.4948 202.609 19.9531C202.885 20.4115 203.023 20.9193 203.023 21.4766C203.023 22.0286 202.885 22.5339 202.609 22.9922C202.339 23.4505 201.974 23.8177 201.516 24.0938C201.057 24.3646 200.552 24.5 200 24.5Z" fill="#E63D4B"/>
<path d="M15.7812 24.5V24.8H16.0812V24.5H15.7812ZM14.5156 24.5H14.2156V24.8H14.5156V24.5ZM14.8984 15.4844L14.6406 15.3309L14.6401 15.3319L14.8984 15.4844ZM15.9375 14.4375L15.7841 14.1797L15.7827 14.1805L15.9375 14.4375ZM23.7422 14.4375L23.5874 14.6945L23.5887 14.6953L23.7422 14.4375ZM24.7891 15.4844L24.5313 15.6378L24.5321 15.6392L24.7891 15.4844ZM24.7891 20.6016L25.046 20.7564L25.0469 20.755L24.7891 20.6016ZM23.7422 21.6406L23.8947 21.899L23.8956 21.8984L23.7422 21.6406ZM15.7812 22.0234V21.7234H15.4813V22.0234H15.7812ZM23.4375 20.2891L23.6496 20.5012L23.6514 20.4994L23.4375 20.2891ZM16.25 15.7891L16.0396 15.5752L16.0379 15.5769L16.25 15.7891ZM15.7812 20.7578H15.4813V21.0578H15.7812V20.7578ZM15.7812 24.5V24.2H14.5156V24.5V24.8H15.7812V24.5ZM14.5156 24.5H14.8156V16.9219H14.5156H14.2156V24.5H14.5156ZM14.5156 16.9219H14.8156C14.8156 16.4468 14.9302 16.0207 15.1568 15.6369L14.8984 15.4844L14.6401 15.3319C14.3563 15.8126 14.2156 16.3449 14.2156 16.9219H14.5156ZM14.8984 15.4844L15.1562 15.6378C15.3916 15.2424 15.7027 14.9292 16.0923 14.6945L15.9375 14.4375L15.7827 14.1805C15.3077 14.4667 14.9261 14.8514 14.6406 15.3309L14.8984 15.4844ZM15.9375 14.4375L16.0909 14.6953C16.48 14.4637 16.9109 14.3469 17.3906 14.3469V14.0469V13.7469C16.8078 13.7469 16.27 13.8904 15.7841 14.1797L15.9375 14.4375ZM17.3906 14.0469V14.3469H22.3047V14.0469V13.7469H17.3906V14.0469ZM22.3047 14.0469V14.3469C22.7786 14.3469 23.2038 14.4634 23.5874 14.6945L23.7422 14.4375L23.897 14.1805C23.4159 13.8907 22.8829 13.7469 22.3047 13.7469V14.0469ZM23.7422 14.4375L23.5887 14.6953C23.9833 14.9302 24.2964 15.2432 24.5313 15.6378L24.7891 15.4844L25.0469 15.3309C24.7609 14.8505 24.3761 14.4657 23.8956 14.1797L23.7422 14.4375ZM24.7891 15.4844L24.5321 15.6392C24.7631 16.0227 24.8797 16.448 24.8797 16.9219H25.1797H25.4797C25.4797 16.3437 25.3358 15.8106 25.046 15.3296L24.7891 15.4844ZM25.1797 16.9219H24.8797V19.1484H25.1797H25.4797V16.9219H25.1797ZM25.1797 19.1484H24.8797C24.8797 19.6281 24.7628 20.0591 24.5313 20.4481L24.7891 20.6016L25.0469 20.755C25.3361 20.269 25.4797 19.7313 25.4797 19.1484H25.1797ZM24.7891 20.6016L24.5321 20.4468C24.2974 20.8363 23.9842 21.1475 23.5887 21.3828L23.7422 21.6406L23.8956 21.8984C24.3752 21.613 24.7599 21.2314 25.046 20.7564L24.7891 20.6016ZM23.7422 21.6406L23.5897 21.3823C23.2058 21.6089 22.7798 21.7234 22.3047 21.7234V22.0234V22.3234C22.8817 22.3234 23.414 22.1828 23.8947 21.899L23.7422 21.6406ZM22.3047 22.0234V21.7234H15.7812V22.0234V22.3234H22.3047V22.0234ZM15.7812 22.0234H15.4813V24.5H15.7812H16.0812V22.0234H15.7812ZM22.3047 20.7578V21.0578C22.8268 21.0578 23.2808 20.8701 23.6496 20.5012L23.4375 20.2891L23.2254 20.0769C22.9692 20.3331 22.668 20.4578 22.3047 20.4578V20.7578ZM23.4375 20.2891L23.6514 20.4994C24.0187 20.126 24.2063 19.6704 24.2063 19.1484H23.9062H23.6062C23.6062 19.5119 23.4813 19.8167 23.2236 20.0787L23.4375 20.2891ZM23.9062 19.1484H24.2063V16.9219H23.9062H23.6062V19.1484H23.9062ZM23.9062 16.9219H24.2063C24.2063 16.3998 24.0185 15.9458 23.6496 15.5769L23.4375 15.7891L23.2254 16.0012C23.4815 16.2573 23.6062 16.5586 23.6062 16.9219H23.9062ZM23.4375 15.7891L23.6496 15.5769C23.2808 15.2081 22.8268 15.0203 22.3047 15.0203V15.3203V15.6203C22.668 15.6203 22.9692 15.7451 23.2254 16.0012L23.4375 15.7891ZM22.3047 15.3203V15.0203H17.3906V15.3203V15.6203H22.3047V15.3203ZM17.3906 15.3203V15.0203C16.8686 15.0203 16.413 15.2079 16.0396 15.5752L16.25 15.7891L16.4604 16.0029C16.7224 15.7452 17.0272 15.6203 17.3906 15.6203V15.3203ZM16.25 15.7891L16.0379 15.5769C15.669 15.9458 15.4813 16.3998 15.4813 16.9219H15.7812H16.0812C16.0812 16.5586 16.206 16.2573 16.4621 16.0012L16.25 15.7891ZM15.7812 16.9219H15.4813V20.7578H15.7812H16.0812V16.9219H15.7812ZM15.7812 20.7578V21.0578H22.3047V20.7578V20.4578H15.7812V20.7578ZM37.125 24.5V24.8H37.425V24.5H37.125ZM35.8594 24.5H35.5594V24.8H35.8594V24.5ZM35.8594 20.6406H36.1594V20.3406H35.8594V20.6406ZM27.4688 20.6406V20.3406H27.1687V20.6406H27.4688ZM27.4688 24.5V24.8H27.7688V24.5H27.4688ZM26.2031 24.5H25.9031V24.8H26.2031V24.5ZM26.7969 18.8359L26.5586 18.6536L26.5555 18.6578L26.7969 18.8359ZM29.6016 15.1719L29.3649 14.9874L29.3633 14.9895L29.6016 15.1719ZM36.5 14.6719L36.2865 14.8827L36.2879 14.884L36.5 14.6719ZM35.8594 19.375V19.675H36.1594V19.375H35.8594ZM35.6016 15.5703L35.3894 15.7825L35.3927 15.7857L35.6016 15.5703ZM30.6094 15.9453L30.3808 15.751L30.3758 15.7569L30.3711 15.763L30.6094 15.9453ZM27.9844 19.375L27.7461 19.1927L27.377 19.675H27.9844V19.375ZM37.125 24.5V24.2H35.8594V24.5V24.8H37.125V24.5ZM35.8594 24.5H36.1594V20.6406H35.8594H35.5594V24.5H35.8594ZM35.8594 20.6406V20.3406H27.4688V20.6406V20.9406H35.8594V20.6406ZM27.4688 20.6406H27.1687V24.5H27.4688H27.7688V20.6406H27.4688ZM27.4688 24.5V24.2H26.2031V24.5V24.8H27.4688V24.5ZM26.2031 24.5H26.5031V20.5859H26.2031H25.9031V24.5H26.2031ZM26.2031 20.5859H26.5031C26.5031 20.0237 26.6782 19.5021 27.0383 19.0141L26.7969 18.8359L26.5555 18.6578C26.1239 19.2427 25.9031 19.8878 25.9031 20.5859H26.2031ZM26.7969 18.8359L27.0351 19.0183L29.8398 15.3542L29.6016 15.1719L29.3633 14.9895L26.5587 18.6536L26.7969 18.8359ZM29.6016 15.1719L29.8382 15.3563C30.0865 15.0376 30.3896 14.7906 30.75 14.6128L30.6172 14.3438L30.4844 14.0747C30.0427 14.2927 29.6687 14.5978 29.3649 14.9875L29.6016 15.1719ZM30.6172 14.3438L30.75 14.6128C31.1101 14.435 31.4866 14.3469 31.8828 14.3469V14.0469V13.7469C31.3936 13.7469 30.9263 13.8566 30.4844 14.0747L30.6172 14.3438ZM31.8828 14.0469V14.3469H35V14.0469V13.7469H31.8828V14.0469ZM35 14.0469V14.3469C35.5088 14.3469 35.9318 14.5234 36.2865 14.8827L36.5 14.6719L36.7135 14.4611C36.2453 13.987 35.6683 13.7469 35 13.7469V14.0469ZM36.5 14.6719L36.2879 14.884C36.6489 15.2451 36.825 15.669 36.825 16.1719H37.125H37.425C37.425 15.5081 37.1844 14.932 36.7121 14.4597L36.5 14.6719ZM37.125 16.1719H36.825V24.5H37.125H37.425V16.1719H37.125ZM35.8594 19.375H36.1594V16.1719H35.8594H35.5594V19.375H35.8594ZM35.8594 16.1719H36.1594C36.1594 15.8544 36.0391 15.5767 35.8104 15.3549L35.6016 15.5703L35.3927 15.7857C35.5077 15.8972 35.5594 16.0206 35.5594 16.1719H35.8594ZM35.6016 15.5703L35.8137 15.3582C35.5911 15.1356 35.3144 15.0203 35 15.0203V15.3203V15.6203C35.1543 15.6203 35.2787 15.6717 35.3894 15.7824L35.6016 15.5703ZM35 15.3203V15.0203H31.8828V15.3203V15.6203H35V15.3203ZM31.8828 15.3203V15.0203C31.2901 15.0203 30.7852 15.2752 30.3808 15.751L30.6094 15.9453L30.838 16.1396C31.1419 15.782 31.486 15.6203 31.8828 15.6203V15.3203ZM30.6094 15.9453L30.3711 15.763L27.7461 19.1927L27.9844 19.375L28.2226 19.5573L30.8476 16.1276L30.6094 15.9453ZM27.9844 19.375V19.675H35.8594V19.375V19.075H27.9844V19.375ZM49.2344 24.5V24.8H49.5344V24.5H49.2344ZM47.9609 24.5H47.6609V24.8H47.9609V24.5ZM47.2266 21.2734L47.4009 21.0289L47.3898 21.0217L47.2266 21.2734ZM45.2031 19.9609L45.3664 19.7092L45.2919 19.6609H45.2031V19.9609ZM41.7812 20.5859L41.5527 20.3916L41.5478 20.3974L41.5432 20.4033L41.7812 20.5859ZM39.7969 23.1719L39.5589 22.9892L39.4969 23.07V23.1719H39.7969ZM39.7969 24.5V24.8H40.0969V24.5H39.7969ZM38.5312 24.5H38.2313V24.8H38.5312V24.5ZM38.9141 15.4844L38.6563 15.3309L38.6557 15.3319L38.9141 15.4844ZM39.9531 14.4375L39.7997 14.1797L39.7983 14.1805L39.9531 14.4375ZM47.4375 19.8906L47.3602 19.6008L46.7055 19.7754L47.2749 20.1427L47.4375 19.8906ZM47.9219 20.2031L48.089 19.954L48.0845 19.951L47.9219 20.2031ZM48.8828 21.25L48.6192 21.3932L48.6206 21.3957L48.8828 21.25ZM39.7969 21.0859H39.4969V21.9701L40.0349 21.2685L39.7969 21.0859ZM40.7734 19.8125L40.5368 19.6281L40.5354 19.6299L40.7734 19.8125ZM41.7891 18.9844L41.6563 18.7154L41.7891 18.9844ZM40.2656 15.7891L40.0552 15.5752L40.0535 15.5769L40.2656 15.7891ZM49.2344 24.5V24.2H47.9609V24.5V24.8H49.2344V24.5ZM47.9609 24.5H48.2609V22.6172H47.9609H47.6609V24.5H47.9609ZM47.9609 22.6172H48.2609C48.2609 21.9626 47.9601 21.4279 47.4007 21.0291L47.2266 21.2734L47.0524 21.5177C47.4722 21.8169 47.6609 22.178 47.6609 22.6172H47.9609ZM47.2266 21.2734L47.3898 21.0217L45.3664 19.7092L45.2031 19.9609L45.0399 20.2126L47.0633 21.5251L47.2266 21.2734ZM45.2031 19.9609V19.6609H43.0547V19.9609V20.2609H45.2031V19.9609ZM43.0547 19.9609V19.6609C42.462 19.6609 41.9571 19.9159 41.5527 20.3916L41.7812 20.5859L42.0098 20.7802C42.3138 20.4227 42.6578 20.2609 43.0547 20.2609V19.9609ZM41.7812 20.5859L41.5432 20.4033L39.5589 22.9892L39.7969 23.1719L40.0349 23.3545L42.0193 20.7686L41.7812 20.5859ZM39.7969 23.1719H39.4969V24.5H39.7969H40.0969V23.1719H39.7969ZM39.7969 24.5V24.2H38.5312V24.5V24.8H39.7969V24.5ZM38.5312 24.5H38.8312V16.9219H38.5312H38.2313V24.5H38.5312ZM38.5312 16.9219H38.8312C38.8312 16.4468 38.9458 16.0207 39.1724 15.6369L38.9141 15.4844L38.6557 15.3319C38.3719 15.8126 38.2313 16.3449 38.2313 16.9219H38.5312ZM38.9141 15.4844L39.1719 15.6378C39.4072 15.2424 39.7184 14.9292 40.1079 14.6945L39.9531 14.4375L39.7983 14.1805C39.3233 14.4667 38.9417 14.8514 38.6563 15.3309L38.9141 15.4844ZM39.9531 14.4375L40.1066 14.6953C40.4956 14.4637 40.9266 14.3469 41.4062 14.3469V14.0469V13.7469C40.8234 13.7469 40.2857 13.8904 39.7997 14.1797L39.9531 14.4375ZM41.4062 14.0469V14.3469H46.9141V14.0469V13.7469H41.4062V14.0469ZM46.9141 14.0469V14.3469C47.4229 14.3469 47.8493 14.5235 48.2097 14.884L48.4219 14.6719L48.634 14.4597C48.1612 13.9869 47.5823 13.7469 46.9141 13.7469V14.0469ZM48.4219 14.6719L48.2097 14.884C48.5708 15.2451 48.7469 15.669 48.7469 16.1719H49.0469H49.3469C49.3469 15.5081 49.1063 14.932 48.634 14.4597L48.4219 14.6719ZM49.0469 16.1719H48.7469V17.8281H49.0469H49.3469V16.1719H49.0469ZM49.0469 17.8281H48.7469C48.7469 18.2625 48.6175 18.6329 48.3601 18.9524L48.5938 19.1406L48.8274 19.3288C49.1742 18.8983 49.3469 18.3938 49.3469 17.8281H49.0469ZM48.5938 19.1406L48.3601 18.9524C48.0983 19.2774 47.7679 19.492 47.3602 19.6008L47.4375 19.8906L47.5148 20.1805C48.0446 20.0392 48.485 19.7539 48.8274 19.3288L48.5938 19.1406ZM47.4375 19.8906L47.2749 20.1427L47.7592 20.4552L47.9219 20.2031L48.0845 19.951L47.6001 19.6385L47.4375 19.8906ZM47.9219 20.2031L47.7547 20.4523C48.1273 20.7022 48.4139 21.0153 48.6192 21.3932L48.8828 21.25L49.1464 21.1068C48.8934 20.6409 48.5394 20.2561 48.089 19.954L47.9219 20.2031ZM48.8828 21.25L48.6206 21.3957C48.8298 21.7723 48.9344 22.1778 48.9344 22.6172H49.2344H49.5344C49.5344 22.0774 49.4046 21.5714 49.1451 21.1043L48.8828 21.25ZM49.2344 22.6172H48.9344V24.5H49.2344H49.5344V22.6172H49.2344ZM39.7969 21.0859L40.0349 21.2685L41.0115 19.9951L40.7734 19.8125L40.5354 19.6299L39.5588 20.9034L39.7969 21.0859ZM40.7734 19.8125L41.0101 19.9969C41.2584 19.6783 41.5615 19.4312 41.9218 19.2534L41.7891 18.9844L41.6563 18.7154C41.2145 18.9334 40.8405 19.2384 40.5368 19.6281L40.7734 19.8125ZM41.7891 18.9844L41.9218 19.2534C42.282 19.0756 42.6585 18.9875 43.0547 18.9875V18.6875V18.3875C42.5654 18.3875 42.0982 18.4973 41.6563 18.7154L41.7891 18.9844ZM43.0547 18.6875V18.9875H46.9141V18.6875V18.3875H43.0547V18.6875ZM46.9141 18.6875V18.9875C47.2317 18.9875 47.5116 18.8736 47.7356 18.6496L47.5234 18.4375L47.3113 18.2254C47.2019 18.3347 47.0756 18.3875 46.9141 18.3875V18.6875ZM47.5234 18.4375L47.7356 18.6496C47.9595 18.4257 48.0734 18.1458 48.0734 17.8281H47.7734H47.4734C47.4734 17.9896 47.4207 18.116 47.3113 18.2254L47.5234 18.4375ZM47.7734 17.8281H48.0734V16.1719H47.7734H47.4734V17.8281H47.7734ZM47.7734 16.1719H48.0734C48.0734 15.8574 47.9581 15.5807 47.7356 15.3582L47.5234 15.5703L47.3113 15.7824C47.4221 15.8932 47.4734 16.0176 47.4734 16.1719H47.7734ZM47.5234 15.5703L47.7356 15.3582C47.5116 15.1342 47.2317 15.0203 46.9141 15.0203V15.3203V15.6203C47.0756 15.6203 47.2019 15.6731 47.3113 15.7824L47.5234 15.5703ZM46.9141 15.3203V15.0203H41.4062V15.3203V15.6203H46.9141V15.3203ZM41.4062 15.3203V15.0203C40.8843 15.0203 40.4287 15.2079 40.0553 15.5752L40.2656 15.7891L40.476 16.0029C40.738 15.7452 41.0428 15.6203 41.4062 15.6203V15.3203ZM40.2656 15.7891L40.0535 15.5769C39.6846 15.9458 39.4969 16.3998 39.4969 16.9219H39.7969H40.0969C40.0969 16.5586 40.2216 16.2573 40.4778 16.0012L40.2656 15.7891ZM39.7969 16.9219H39.4969V21.0859H39.7969H40.0969V16.9219H39.7969ZM56.1094 24.5V24.8H56.4094V24.5H56.1094ZM54.8359 24.5H54.5359V24.8H54.8359V24.5ZM54.8359 15.3203H55.1359V15.0203H54.8359V15.3203ZM49.9375 15.3203H49.6375V15.6203H49.9375V15.3203ZM49.9375 14.0469V13.7469H49.6375V14.0469H49.9375ZM61.0078 14.0469H61.3078V13.7469H61.0078V14.0469ZM61.0078 15.3203V15.6203H61.3078V15.3203H61.0078ZM56.1094 15.3203V15.0203H55.8094V15.3203H56.1094ZM56.1094 24.5V24.2H54.8359V24.5V24.8H56.1094V24.5ZM54.8359 24.5H55.1359V15.3203H54.8359H54.5359V24.5H54.8359ZM54.8359 15.3203V15.0203H49.9375V15.3203V15.6203H54.8359V15.3203ZM49.9375 15.3203H50.2375V14.0469H49.9375H49.6375V15.3203H49.9375ZM49.9375 14.0469V14.3469H61.0078V14.0469V13.7469H49.9375V14.0469ZM61.0078 14.0469H60.7078V15.3203H61.0078H61.3078V14.0469H61.0078ZM61.0078 15.3203V15.0203H56.1094V15.3203V15.6203H61.0078V15.3203ZM56.1094 15.3203H55.8094V24.5H56.1094H56.4094V15.3203H56.1094ZM68.375 24.5V24.8H68.675V24.5H68.375ZM67.1094 24.5H66.8094V24.8H67.1094V24.5ZM67.1094 21.25H67.4094V20.9562L67.1156 20.9501L67.1094 21.25ZM65.0391 20.6172L64.8762 20.8691L64.8765 20.8693L65.0391 20.6172ZM63.25 19.4609L63.0861 19.7122L63.0872 19.7129L63.25 19.4609ZM62.4062 18.5547L62.1417 18.6963L62.1433 18.6991L62.4062 18.5547ZM62.1094 14.0469V13.7469H61.8094V14.0469H62.1094ZM63.375 14.0469H63.675V13.7469H63.375V14.0469ZM63.9375 18.3984L63.7619 18.6416L63.7681 18.6462L63.7747 18.6504L63.9375 18.3984ZM65.7266 19.5547L65.5637 19.8067L65.5649 19.8074L65.7266 19.5547ZM69.75 19.5547L69.9116 19.8074L69.9128 19.8066L69.75 19.5547ZM71.5391 18.3984L71.7019 18.6504L71.7084 18.6462L71.7147 18.6416L71.5391 18.3984ZM72.1016 14.0469V13.7469H71.8016V14.0469H72.1016ZM73.375 14.0469H73.675V13.7469H73.375V14.0469ZM73.0703 18.5547L72.8074 18.4102L72.8058 18.4131L73.0703 18.5547ZM72.2344 19.4609L72.3972 19.7129L72.3983 19.7122L72.2344 19.4609ZM70.4453 20.6172L70.6079 20.8693L70.6082 20.8691L70.4453 20.6172ZM68.375 21.25L68.3688 20.9501L68.075 20.9562V21.25H68.375ZM68.375 24.5V24.2H67.1094V24.5V24.8H68.375V24.5ZM67.1094 24.5H67.4094V21.25H67.1094H66.8094V24.5H67.1094ZM67.1094 21.25L67.1156 20.9501C66.4211 20.9356 65.7851 20.7412 65.2016 20.365L65.0391 20.6172L64.8765 20.8693C65.5534 21.3057 66.2976 21.5332 67.1031 21.5499L67.1094 21.25ZM65.0391 20.6172L65.2019 20.3652L63.4128 19.209L63.25 19.4609L63.0872 19.7129L64.8762 20.8691L65.0391 20.6172ZM63.25 19.4609L63.4139 19.2097C63.0951 19.0017 62.8482 18.7361 62.6692 18.4103L62.4062 18.5547L62.1433 18.6991C62.3706 19.1129 62.6862 19.4514 63.0861 19.7122L63.25 19.4609ZM62.4062 18.5547L62.6707 18.4131C62.4966 18.0877 62.4094 17.738 62.4094 17.3594H62.1094H61.8094C61.8094 17.8349 61.9201 18.2821 62.1418 18.6963L62.4062 18.5547ZM62.1094 17.3594H62.4094V14.0469H62.1094H61.8094V17.3594H62.1094ZM62.1094 14.0469V14.3469H63.375V14.0469V13.7469H62.1094V14.0469ZM63.375 14.0469H63.075V17.3594H63.375H63.675V14.0469H63.375ZM63.375 17.3594H63.075C63.075 17.8879 63.3175 18.3207 63.7619 18.6416L63.9375 18.3984L64.1131 18.1552C63.8075 17.9345 63.675 17.6746 63.675 17.3594H63.375ZM63.9375 18.3984L63.7747 18.6504L65.5637 19.8066L65.7266 19.5547L65.8894 19.3027L64.1003 18.1465L63.9375 18.3984ZM65.7266 19.5547L65.5649 19.8074C66.0595 20.1237 66.5971 20.2844 67.1719 20.2844V19.9844V19.6844C66.7154 19.6844 66.2894 19.5586 65.8882 19.302L65.7266 19.5547ZM67.1719 19.9844V20.2844H68.3125V19.9844V19.6844H67.1719V19.9844ZM68.3125 19.9844V20.2844C68.8827 20.2844 69.4176 20.1234 69.9116 19.8074L69.75 19.5547L69.5884 19.302C69.1866 19.5589 68.7632 19.6844 68.3125 19.6844V19.9844ZM69.75 19.5547L69.9128 19.8066L71.7019 18.6504L71.5391 18.3984L71.3762 18.1465L69.5872 19.3027L69.75 19.5547ZM71.5391 18.3984L71.7147 18.6416C72.159 18.3207 72.4016 17.8879 72.4016 17.3594H72.1016H71.8016C71.8016 17.6746 71.6691 17.9345 71.3634 18.1552L71.5391 18.3984ZM72.1016 17.3594H72.4016V14.0469H72.1016H71.8016V17.3594H72.1016ZM72.1016 14.0469V14.3469H73.375V14.0469V13.7469H72.1016V14.0469ZM73.375 14.0469H73.075V17.3594H73.375H73.675V14.0469H73.375ZM73.375 17.3594H73.075C73.075 17.7366 72.9859 18.0853 72.8074 18.4103L73.0703 18.5547L73.3333 18.6991C73.561 18.2845 73.675 17.8363 73.675 17.3594H73.375ZM73.0703 18.5547L72.8058 18.4131C72.6322 18.7374 72.3887 19.0022 72.0705 19.2097L72.2344 19.4609L72.3983 19.7122C72.7988 19.451 73.1125 19.1115 73.3348 18.6963L73.0703 18.5547ZM72.2344 19.4609L72.0715 19.209L70.2825 20.3652L70.4453 20.6172L70.6082 20.8691L72.3972 19.7129L72.2344 19.4609ZM70.4453 20.6172L70.2828 20.365C69.6993 20.7412 69.0633 20.9356 68.3688 20.9501L68.375 21.25L68.3812 21.5499C69.1867 21.5332 69.931 21.3057 70.6079 20.8693L70.4453 20.6172ZM68.375 21.25H68.075V24.5H68.375H68.675V21.25H68.375ZM79.1172 19.3516V19.6516H79.4172V19.3516H79.1172ZM77.9219 19.3516H77.6219V19.6516H77.9219V19.3516ZM77.9219 18.1562V17.8563H77.6219V18.1562H77.9219ZM79.1172 18.1562H79.4172V17.8563H79.1172V18.1562ZM79.1172 23.3828V23.6828H79.4172V23.3828H79.1172ZM77.9219 23.3828H77.6219V23.6828H77.9219V23.3828ZM77.9219 22.1875V21.8875H77.6219V22.1875H77.9219ZM79.1172 22.1875H79.4172V21.8875H79.1172V22.1875ZM79.1172 19.3516V19.0516H77.9219V19.3516V19.6516H79.1172V19.3516ZM77.9219 19.3516H78.2219V18.1562H77.9219H77.6219V19.3516H77.9219ZM77.9219 18.1562V18.4562H79.1172V18.1562V17.8563H77.9219V18.1562ZM79.1172 18.1562H78.8172V19.3516H79.1172H79.4172V18.1562H79.1172ZM79.1172 23.3828V23.0828H77.9219V23.3828V23.6828H79.1172V23.3828ZM77.9219 23.3828H78.2219V22.1875H77.9219H77.6219V23.3828H77.9219ZM77.9219 22.1875V22.4875H79.1172V22.1875V21.8875H77.9219V22.1875ZM79.1172 22.1875H78.8172V23.3828H79.1172H79.4172V22.1875H79.1172ZM97.0078 24.5V24.8H97.3078V24.5H97.0078ZM87.6641 19.9609L87.4063 19.8075L87.4057 19.8084L87.6641 19.9609ZM88.7031 18.9219L88.8556 19.1802L88.8566 19.1797L88.7031 18.9219ZM95.4141 18.0625L95.6262 18.2746L95.6279 18.2729L95.4141 18.0625ZM87.5547 15.3203H87.2547V15.6203H87.5547V15.3203ZM87.5547 14.0469V13.7469H87.2547V14.0469H87.5547ZM95.7188 14.4375L95.5639 14.6945L95.5653 14.6953L95.7188 14.4375ZM96.7656 15.4844L96.5078 15.6378L96.5087 15.6392L96.7656 15.4844ZM96.7656 18.375L97.0226 18.5298L97.0234 18.5284L96.7656 18.375ZM95.7188 19.4141L95.8713 19.6724L95.8722 19.6719L95.7188 19.4141ZM89.0156 20.2734L88.8035 20.0613L89.0156 20.2734ZM88.6875 23.0859L88.4753 23.2981L88.4812 23.3037L88.6875 23.0859ZM97.0078 23.2266H97.3078V22.9266H97.0078V23.2266ZM97.0078 24.5V24.2H89.0391V24.5V24.8H97.0078V24.5ZM89.0391 24.5V24.2C88.6346 24.2 88.2967 24.06 88.009 23.7722L87.7969 23.9844L87.5847 24.1965C87.9845 24.5963 88.4748 24.8 89.0391 24.8V24.5ZM87.7969 23.9844L88.009 23.7722C87.7213 23.4845 87.5813 23.1467 87.5813 22.7422H87.2812H86.9812C86.9812 23.3065 87.185 23.7967 87.5847 24.1965L87.7969 23.9844ZM87.2812 22.7422H87.5813V21.4062H87.2812H86.9812V22.7422H87.2812ZM87.2812 21.4062H87.5813C87.5813 20.9254 87.6961 20.4968 87.9224 20.1135L87.6641 19.9609L87.4057 19.8084C87.1216 20.2896 86.9812 20.8246 86.9812 21.4062H87.2812ZM87.6641 19.9609L87.9219 20.1144C88.1569 19.7195 88.4673 19.4095 88.8556 19.1802L88.7031 18.9219L88.5506 18.6635C88.0743 18.9447 87.692 19.3274 87.4063 19.8075L87.6641 19.9609ZM88.7031 18.9219L88.8566 19.1797C89.2456 18.9481 89.6766 18.8313 90.1562 18.8313V18.5312V18.2313C89.5734 18.2313 89.0357 18.3748 88.5497 18.6641L88.7031 18.9219ZM90.1562 18.5312V18.8313H94.2812V18.5312V18.2313H90.1562V18.5312ZM94.2812 18.5312V18.8313C94.8034 18.8313 95.2573 18.6435 95.6262 18.2746L95.4141 18.0625L95.2019 17.8504C94.9458 18.1065 94.6445 18.2313 94.2812 18.2313V18.5312ZM95.4141 18.0625L95.6279 18.2729C95.9952 17.8995 96.1828 17.4439 96.1828 16.9219H95.8828H95.5828C95.5828 17.2853 95.4579 17.5901 95.2002 17.8521L95.4141 18.0625ZM95.8828 16.9219H96.1828C96.1828 16.3998 95.9951 15.9458 95.6262 15.5769L95.4141 15.7891L95.2019 16.0012C95.4581 16.2573 95.5828 16.5586 95.5828 16.9219H95.8828ZM95.4141 15.7891L95.6262 15.5769C95.2573 15.2081 94.8034 15.0203 94.2812 15.0203V15.3203V15.6203C94.6445 15.6203 94.9458 15.7451 95.2019 16.0012L95.4141 15.7891ZM94.2812 15.3203V15.0203H87.5547V15.3203V15.6203H94.2812V15.3203ZM87.5547 15.3203H87.8547V14.0469H87.5547H87.2547V15.3203H87.5547ZM87.5547 14.0469V14.3469H94.2812V14.0469V13.7469H87.5547V14.0469ZM94.2812 14.0469V14.3469C94.7552 14.3469 95.1804 14.4634 95.5639 14.6945L95.7188 14.4375L95.8736 14.1805C95.3925 13.8907 94.8594 13.7469 94.2812 13.7469V14.0469ZM95.7188 14.4375L95.5653 14.6953C95.9599 14.9302 96.273 15.2432 96.5078 15.6378L96.7656 15.4844L97.0234 15.3309C96.7374 14.8505 96.3526 14.4657 95.8722 14.1797L95.7188 14.4375ZM96.7656 15.4844L96.5087 15.6392C96.7397 16.0227 96.8562 16.448 96.8562 16.9219H97.1562H97.4563C97.4563 16.3437 97.3124 15.8106 97.0226 15.3296L96.7656 15.4844ZM97.1562 16.9219H96.8562C96.8562 17.4016 96.7394 17.8325 96.5078 18.2216L96.7656 18.375L97.0234 18.5284C97.3127 18.0425 97.4563 17.5047 97.4563 16.9219H97.1562ZM96.7656 18.375L96.5087 18.2202C96.274 18.6098 95.9607 18.9209 95.5653 19.1563L95.7188 19.4141L95.8722 19.6719C96.3518 19.3864 96.7365 19.0048 97.0226 18.5298L96.7656 18.375ZM95.7188 19.4141L95.5662 19.1557C95.1824 19.3823 94.7563 19.4969 94.2812 19.4969V19.7969V20.0969C94.8583 20.0969 95.3905 19.9562 95.8713 19.6724L95.7188 19.4141ZM94.2812 19.7969V19.4969H90.1562V19.7969V20.0969H94.2812V19.7969ZM90.1562 19.7969V19.4969C89.6327 19.4969 89.1765 19.6883 88.8035 20.0613L89.0156 20.2734L89.2278 20.4856C89.4901 20.2232 89.7944 20.0969 90.1562 20.0969V19.7969ZM89.0156 20.2734L88.8035 20.0613C88.4346 20.4302 88.2469 20.8841 88.2469 21.4062H88.5469H88.8469C88.8469 21.043 88.9716 20.7417 89.2278 20.4856L89.0156 20.2734ZM88.5469 21.4062H88.2469V22.7422H88.5469H88.8469V21.4062H88.5469ZM88.5469 22.7422H88.2469C88.2469 22.9553 88.324 23.1467 88.4754 23.2981L88.6875 23.0859L88.8996 22.8738C88.8635 22.8377 88.8469 22.7999 88.8469 22.7422H88.5469ZM88.6875 23.0859L88.4812 23.3037C88.6354 23.4499 88.8263 23.5266 89.0391 23.5266V23.2266V22.9266C88.981 22.9266 88.9375 22.9095 88.8938 22.8682L88.6875 23.0859ZM89.0391 23.2266V23.5266H97.0078V23.2266V22.9266H89.0391V23.2266ZM97.0078 23.2266H96.7078V24.5H97.0078H97.3078V23.2266H97.0078ZM101.023 24.5V24.8H101.159L101.249 24.6979L101.023 24.5ZM99.3359 24.5L99.1104 24.3022L98.6739 24.8H99.3359V24.5ZM104.672 18.4141L104.897 18.6119L104.901 18.6082L104.672 18.4141ZM98.0156 15.3203H97.7156V15.6203H98.0156V15.3203ZM98.0156 14.0469V13.7469H97.7156V14.0469H98.0156ZM105.625 19.2578L105.851 19.4558L105.854 19.4514L105.625 19.2578ZM101.023 24.5V24.2H99.3359V24.5V24.8H101.023V24.5ZM99.3359 24.5L99.5615 24.6978L104.897 18.6118L104.672 18.4141L104.446 18.2163L99.1104 24.3022L99.3359 24.5ZM104.672 18.4141L104.901 18.6082C105.324 18.1093 105.542 17.5387 105.542 16.9062H105.242H104.942C104.942 17.3883 104.78 17.823 104.443 18.2199L104.672 18.4141ZM105.242 16.9062H105.542V15.8047H105.242H104.942V16.9062H105.242ZM105.242 15.8047H105.542C105.542 15.5916 105.465 15.4002 105.314 15.2488L105.102 15.4609L104.889 15.6731C104.926 15.7092 104.942 15.7469 104.942 15.8047H105.242ZM105.102 15.4609L105.314 15.2488C105.162 15.0975 104.971 15.0203 104.758 15.0203V15.3203V15.6203C104.816 15.6203 104.853 15.6369 104.889 15.6731L105.102 15.4609ZM104.758 15.3203V15.0203H98.0156V15.3203V15.6203H104.758V15.3203ZM98.0156 15.3203H98.3156V14.0469H98.0156H97.7156V15.3203H98.0156ZM98.0156 14.0469V14.3469H104.758V14.0469V13.7469H98.0156V14.0469ZM104.758 14.0469V14.3469C105.162 14.3469 105.5 14.4869 105.788 14.7746L106 14.5625L106.212 14.3504C105.812 13.9506 105.322 13.7469 104.758 13.7469V14.0469ZM106 14.5625L105.788 14.7746C106.076 15.0624 106.216 15.4002 106.216 15.8047H106.516H106.816C106.816 15.2404 106.612 14.7501 106.212 14.3504L106 14.5625ZM106.516 15.8047H106.216V16.9062H106.516H106.816V15.8047H106.516ZM106.516 16.9062H106.216C106.216 17.6952 105.947 18.4115 105.396 19.0643L105.625 19.2578L105.854 19.4514C106.49 18.6979 106.816 17.8465 106.816 16.9062H106.516ZM105.625 19.2578L105.4 19.0599L100.798 24.3021L101.023 24.5L101.249 24.6979L105.85 19.4557L105.625 19.2578ZM116.078 21.3672V21.6672H116.378V21.3672H116.078ZM111.062 21.3672H110.762V21.6672H111.062V21.3672ZM111.062 20.1719V19.8719H110.762V20.1719H111.062ZM116.078 20.1719H116.378V19.8719H116.078V20.1719ZM116.078 21.3672V21.0672H111.062V21.3672V21.6672H116.078V21.3672ZM111.062 21.3672H111.363V20.1719H111.062H110.762V21.3672H111.062ZM111.062 20.1719V20.4719H116.078V20.1719V19.8719H111.062V20.1719ZM116.078 20.1719H115.778V21.3672H116.078H116.378V20.1719H116.078ZM121.18 22.4609L120.921 22.6137L120.922 22.6146L121.18 22.4609ZM121.18 16.0938L121.437 16.2475L121.438 16.2465L121.18 16.0938ZM130.188 14.6016L130.034 14.8592L130.035 14.8598L130.188 14.6016ZM131.672 16.0938L131.413 16.2449L131.414 16.2475L131.672 16.0938ZM131.672 22.4609L131.414 22.3082L131.413 22.3088L131.672 22.4609ZM130.188 23.9453L130.035 23.6871L130.034 23.6877L130.188 23.9453ZM129.547 22.8438L129.394 22.5854L129.393 22.5862L129.547 22.8438ZM130.578 21.8203L130.836 21.9742L130.836 21.9728L130.578 21.8203ZM130.578 16.7344L130.32 16.8869L130.321 16.8883L130.578 16.7344ZM129.547 15.7031L129.393 15.9607L129.394 15.9615L129.547 15.7031ZM122.273 16.7344L122.016 16.5796L122.016 16.5805L122.273 16.7344ZM122.273 21.8203L122.015 21.9728L122.017 21.9765L122.273 21.8203ZM128.125 24.5V24.2H124.734V24.5V24.8H128.125V24.5ZM124.734 24.5V24.2C124.025 24.2 123.389 24.0282 122.818 23.6877L122.664 23.9453L122.51 24.2029C123.179 24.602 123.923 24.8 124.734 24.8V24.5ZM122.664 23.9453L122.818 23.6877C122.241 23.3434 121.782 22.8843 121.437 22.3072L121.18 22.4609L120.922 22.6146C121.317 23.2772 121.848 23.8077 122.51 24.2029L122.664 23.9453ZM121.18 22.4609L121.438 22.3082C121.097 21.7313 120.925 21.0943 120.925 20.3906H120.625H120.325C120.325 21.1973 120.523 21.9406 120.921 22.6137L121.18 22.4609ZM120.625 20.3906H120.925V18.1562H120.625H120.325V20.3906H120.625ZM120.625 18.1562H120.925C120.925 17.4525 121.097 16.8186 121.437 16.2475L121.18 16.0938L120.922 15.94C120.523 16.6085 120.325 17.3495 120.325 18.1562H120.625ZM121.18 16.0938L121.438 16.2465C121.782 15.6644 122.241 15.2031 122.818 14.8592L122.664 14.6016L122.51 14.3439C121.847 14.7396 121.317 15.2731 120.921 15.941L121.18 16.0938ZM122.664 14.6016L122.818 14.8592C123.389 14.5186 124.025 14.3469 124.734 14.3469V14.0469V13.7469C123.923 13.7469 123.179 13.9449 122.51 14.3439L122.664 14.6016ZM124.734 14.0469V14.3469H128.125V14.0469V13.7469H124.734V14.0469ZM128.125 14.0469V14.3469C128.829 14.3469 129.463 14.5184 130.034 14.8592L130.188 14.6016L130.341 14.3439C129.673 13.9451 128.932 13.7469 128.125 13.7469V14.0469ZM130.188 14.6016L130.035 14.8598C130.616 15.2036 131.074 15.6642 131.413 16.2449L131.672 16.0938L131.931 15.9426C131.541 15.2733 131.009 14.7391 130.34 14.3434L130.188 14.6016ZM131.672 16.0938L131.414 16.2475C131.755 16.8186 131.927 17.4525 131.927 18.1562H132.227H132.527C132.527 17.3495 132.328 16.6085 131.93 15.94L131.672 16.0938ZM132.227 18.1562H131.927V20.3906H132.227H132.527V18.1562H132.227ZM132.227 20.3906H131.927C131.927 21.0943 131.755 21.7313 131.414 22.3082L131.672 22.4609L131.93 22.6137C132.328 21.9406 132.527 21.1973 132.527 20.3906H132.227ZM131.672 22.4609L131.413 22.3088C131.075 22.8844 130.617 23.3429 130.035 23.6871L130.188 23.9453L130.34 24.2035C131.008 23.8081 131.54 23.277 131.93 22.613L131.672 22.4609ZM130.188 23.9453L130.034 23.6877C129.463 24.0284 128.829 24.2 128.125 24.2V24.5V24.8C128.932 24.8 129.673 24.6018 130.341 24.2029L130.188 23.9453ZM128.125 23.2266V23.5266C128.697 23.5266 129.225 23.3856 129.701 23.1013L129.547 22.8438L129.393 22.5862C129.015 22.8123 128.594 22.9266 128.125 22.9266V23.2266ZM129.547 22.8438L129.699 23.1021C130.174 22.8216 130.554 22.4447 130.836 21.9742L130.578 21.8203L130.321 21.6664C130.091 22.0501 129.784 22.3555 129.394 22.5854L129.547 22.8438ZM130.578 21.8203L130.836 21.9728C131.12 21.4926 131.261 20.963 131.261 20.3906H130.961H130.661C130.661 20.8599 130.547 21.2835 130.32 21.6678L130.578 21.8203ZM130.961 20.3906H131.261V18.1562H130.961H130.661V20.3906H130.961ZM130.961 18.1562H131.261C131.261 17.5839 131.12 17.0563 130.836 16.5805L130.578 16.7344L130.321 16.8883C130.547 17.2666 130.661 17.687 130.661 18.1562H130.961ZM130.578 16.7344L130.836 16.5819C130.555 16.1059 130.175 15.7258 129.699 15.4448L129.547 15.7031L129.394 15.9615C129.783 16.1909 130.09 16.4982 130.32 16.8869L130.578 16.7344ZM129.547 15.7031L129.701 15.4456C129.225 15.1613 128.697 15.0203 128.125 15.0203V15.3203V15.6203C128.594 15.6203 129.015 15.7346 129.393 15.9606L129.547 15.7031ZM128.125 15.3203V15.0203H124.734V15.3203V15.6203H128.125V15.3203ZM124.734 15.3203V15.0203C124.157 15.0203 123.627 15.161 123.151 15.4456L123.305 15.7031L123.459 15.9606C123.836 15.7349 124.259 15.6203 124.734 15.6203V15.3203ZM123.305 15.7031L123.151 15.4456C122.681 15.7264 122.302 16.1057 122.016 16.5796L122.273 16.7344L122.53 16.8892C122.766 16.4984 123.074 16.1902 123.459 15.9606L123.305 15.7031ZM122.273 16.7344L122.016 16.5805C121.732 17.0563 121.591 17.5839 121.591 18.1562H121.891H122.191C122.191 17.687 122.305 17.2666 122.531 16.8883L122.273 16.7344ZM121.891 18.1562H121.591V20.3906H121.891H122.191V18.1562H121.891ZM121.891 20.3906H121.591C121.591 20.963 121.732 21.4926 122.015 21.9728L122.273 21.8203L122.532 21.6678C122.305 21.2835 122.191 20.8599 122.191 20.3906H121.891ZM122.273 21.8203L122.017 21.9765C122.303 22.4449 122.682 22.8209 123.151 23.1013L123.305 22.8438L123.459 22.5862C123.074 22.3561 122.765 22.0499 122.53 21.6641L122.273 21.8203ZM123.305 22.8438L123.151 23.1013C123.627 23.3859 124.157 23.5266 124.734 23.5266V23.2266V22.9266C124.259 22.9266 123.836 22.812 123.459 22.5862L123.305 22.8438ZM124.734 23.2266V23.5266H128.125V23.2266V22.9266H124.734V23.2266ZM143.977 24.5V24.8H144.277V24.5H143.977ZM142.703 24.5H142.403V24.8H142.703V24.5ZM142.703 22.0391H143.003V21.7391H142.703V22.0391ZM135.211 21.5938L135.056 21.8505L135.059 21.8524L135.211 21.5938ZM134.008 20.3906L133.749 20.5426L133.751 20.5458L134.008 20.3906ZM133.562 14.0469V13.7469H133.262V14.0469H133.562ZM134.828 14.0469H135.128V13.7469H134.828V14.0469ZM135.43 20.1641L135.218 20.3762L135.219 20.3776L135.43 20.1641ZM142.703 20.7656V21.0656H143.003V20.7656H142.703ZM142.703 14.0469V13.7469H142.403V14.0469H142.703ZM143.977 14.0469H144.277V13.7469H143.977V14.0469ZM143.977 24.5V24.2H142.703V24.5V24.8H143.977V24.5ZM142.703 24.5H143.003V22.0391H142.703H142.403V24.5H142.703ZM142.703 22.0391V21.7391H136.883V22.0391V22.3391H142.703V22.0391ZM136.883 22.0391V21.7391C136.325 21.7391 135.82 21.6038 135.363 21.3351L135.211 21.5938L135.059 21.8524C135.612 22.1775 136.222 22.3391 136.883 22.3391V22.0391ZM135.211 21.5938L135.366 21.337C134.908 21.06 134.542 20.6939 134.265 20.2355L134.008 20.3906L133.751 20.5458C134.078 21.0874 134.514 21.5233 135.056 21.8505L135.211 21.5938ZM134.008 20.3906L134.266 20.2386C133.998 19.7818 133.863 19.2748 133.863 18.7109H133.562H133.262C133.262 19.3762 133.424 19.989 133.749 20.5426L134.008 20.3906ZM133.562 18.7109H133.863V14.0469H133.562H133.262V18.7109H133.562ZM133.562 14.0469V14.3469H134.828V14.0469V13.7469H133.562V14.0469ZM134.828 14.0469H134.528V18.7109H134.828H135.128V14.0469H134.828ZM134.828 18.7109H134.528C134.528 19.3581 134.76 19.9188 135.218 20.3762L135.43 20.1641L135.642 19.9519C135.297 19.6072 135.128 19.1992 135.128 18.7109H134.828ZM135.43 20.1641L135.219 20.3776C135.68 20.8331 136.24 21.0656 136.883 21.0656V20.7656V20.4656C136.401 20.4656 135.991 20.2971 135.64 19.9506L135.43 20.1641ZM136.883 20.7656V21.0656H142.703V20.7656V20.4656H136.883V20.7656ZM142.703 20.7656H143.003V14.0469H142.703H142.403V20.7656H142.703ZM142.703 14.0469V14.3469H143.977V14.0469V13.7469H142.703V14.0469ZM143.977 14.0469H143.677V24.5H143.977H144.277V14.0469H143.977ZM153.547 21.3672V21.6672H153.847V21.3672H153.547ZM148.531 21.3672H148.231V21.6672H148.531V21.3672ZM148.531 20.1719V19.8719H148.231V20.1719H148.531ZM153.547 20.1719H153.847V19.8719H153.547V20.1719ZM153.547 21.3672V21.0672H148.531V21.3672V21.6672H153.547V21.3672ZM148.531 21.3672H148.831V20.1719H148.531H148.231V21.3672H148.531ZM148.531 20.1719V20.4719H153.547V20.1719V19.8719H148.531V20.1719ZM153.547 20.1719H153.247V21.3672H153.547H153.847V20.1719H153.547ZM167.82 24.5V24.8H168.12V24.5H167.82ZM158.477 19.9609L158.219 19.8075L158.218 19.8084L158.477 19.9609ZM159.516 18.9219L159.668 19.1802L159.669 19.1797L159.516 18.9219ZM166.227 18.0625L166.439 18.2746L166.44 18.2729L166.227 18.0625ZM158.367 15.3203H158.067V15.6203H158.367V15.3203ZM158.367 14.0469V13.7469H158.067V14.0469H158.367ZM166.531 14.4375L166.376 14.6945L166.378 14.6953L166.531 14.4375ZM167.578 15.4844L167.32 15.6378L167.321 15.6392L167.578 15.4844ZM167.578 18.375L167.835 18.5298L167.836 18.5284L167.578 18.375ZM166.531 19.4141L166.684 19.6724L166.685 19.6719L166.531 19.4141ZM159.828 20.2734L159.616 20.0613L159.828 20.2734ZM159.5 23.0859L159.288 23.2981L159.294 23.3037L159.5 23.0859ZM167.82 23.2266H168.12V22.9266H167.82V23.2266ZM167.82 24.5V24.2H159.852V24.5V24.8H167.82V24.5ZM159.852 24.5V24.2C159.447 24.2 159.109 24.06 158.822 23.7722L158.609 23.9844L158.397 24.1965C158.797 24.5963 159.287 24.8 159.852 24.8V24.5ZM158.609 23.9844L158.822 23.7722C158.534 23.4845 158.394 23.1467 158.394 22.7422H158.094H157.794C157.794 23.3065 157.997 23.7967 158.397 24.1965L158.609 23.9844ZM158.094 22.7422H158.394V21.4062H158.094H157.794V22.7422H158.094ZM158.094 21.4062H158.394C158.394 20.9254 158.509 20.4968 158.735 20.1135L158.477 19.9609L158.218 19.8084C157.934 20.2896 157.794 20.8246 157.794 21.4062H158.094ZM158.477 19.9609L158.734 20.1144C158.969 19.7195 159.28 19.4095 159.668 19.1802L159.516 18.9219L159.363 18.6635C158.887 18.9447 158.505 19.3274 158.219 19.8075L158.477 19.9609ZM159.516 18.9219L159.669 19.1797C160.058 18.9481 160.489 18.8313 160.969 18.8313V18.5312V18.2313C160.386 18.2313 159.848 18.3748 159.362 18.6641L159.516 18.9219ZM160.969 18.5312V18.8313H165.094V18.5312V18.2313H160.969V18.5312ZM165.094 18.5312V18.8313C165.616 18.8313 166.07 18.6435 166.439 18.2746L166.227 18.0625L166.014 17.8504C165.758 18.1065 165.457 18.2313 165.094 18.2313V18.5312ZM166.227 18.0625L166.44 18.2729C166.808 17.8995 166.995 17.4439 166.995 16.9219H166.695H166.395C166.395 17.2853 166.27 17.5901 166.013 17.8521L166.227 18.0625ZM166.695 16.9219H166.995C166.995 16.3998 166.808 15.9458 166.439 15.5769L166.227 15.7891L166.014 16.0012C166.271 16.2573 166.395 16.5586 166.395 16.9219H166.695ZM166.227 15.7891L166.439 15.5769C166.07 15.2081 165.616 15.0203 165.094 15.0203V15.3203V15.6203C165.457 15.6203 165.758 15.7451 166.014 16.0012L166.227 15.7891ZM165.094 15.3203V15.0203H158.367V15.3203V15.6203H165.094V15.3203ZM158.367 15.3203H158.667V14.0469H158.367H158.067V15.3203H158.367ZM158.367 14.0469V14.3469H165.094V14.0469V13.7469H158.367V14.0469ZM165.094 14.0469V14.3469C165.568 14.3469 165.993 14.4634 166.376 14.6945L166.531 14.4375L166.686 14.1805C166.205 13.8907 165.672 13.7469 165.094 13.7469V14.0469ZM166.531 14.4375L166.378 14.6953C166.772 14.9302 167.085 15.2432 167.32 15.6378L167.578 15.4844L167.836 15.3309C167.55 14.8505 167.165 14.4657 166.685 14.1797L166.531 14.4375ZM167.578 15.4844L167.321 15.6392C167.552 16.0227 167.669 16.448 167.669 16.9219H167.969H168.269C168.269 16.3437 168.125 15.8106 167.835 15.3296L167.578 15.4844ZM167.969 16.9219H167.669C167.669 17.4016 167.552 17.8325 167.32 18.2216L167.578 18.375L167.836 18.5284C168.125 18.0425 168.269 17.5047 168.269 16.9219H167.969ZM167.578 18.375L167.321 18.2202C167.086 18.6098 166.773 18.9209 166.378 19.1563L166.531 19.4141L166.685 19.6719C167.164 19.3864 167.549 19.0048 167.835 18.5298L167.578 18.375ZM166.531 19.4141L166.379 19.1557C165.995 19.3823 165.569 19.4969 165.094 19.4969V19.7969V20.0969C165.671 20.0969 166.203 19.9562 166.684 19.6724L166.531 19.4141ZM165.094 19.7969V19.4969H160.969V19.7969V20.0969H165.094V19.7969ZM160.969 19.7969V19.4969C160.445 19.4969 159.989 19.6883 159.616 20.0613L159.828 20.2734L160.04 20.4856C160.303 20.2232 160.607 20.0969 160.969 20.0969V19.7969ZM159.828 20.2734L159.616 20.0613C159.247 20.4302 159.059 20.8841 159.059 21.4062H159.359H159.659C159.659 21.043 159.784 20.7417 160.04 20.4856L159.828 20.2734ZM159.359 21.4062H159.059V22.7422H159.359H159.659V21.4062H159.359ZM159.359 22.7422H159.059C159.059 22.9553 159.137 23.1467 159.288 23.2981L159.5 23.0859L159.712 22.8738C159.676 22.8377 159.659 22.7999 159.659 22.7422H159.359ZM159.5 23.0859L159.294 23.3037C159.448 23.4499 159.639 23.5266 159.852 23.5266V23.2266V22.9266C159.793 22.9266 159.75 22.9095 159.706 22.8682L159.5 23.0859ZM159.852 23.2266V23.5266H167.82V23.2266V22.9266H159.852V23.2266ZM167.82 23.2266H167.52V24.5H167.82H168.12V23.2266H167.82ZM169.773 22.4609L169.515 22.6137L169.516 22.6146L169.773 22.4609ZM169.773 16.0938L170.031 16.2475L170.032 16.2465L169.773 16.0938ZM178.781 14.6016L178.628 14.8592L178.628 14.8598L178.781 14.6016ZM180.266 16.0938L180.006 16.2449L180.008 16.2475L180.266 16.0938ZM180.266 22.4609L180.007 22.3082L180.007 22.3088L180.266 22.4609ZM178.781 23.9453L178.628 23.6871L178.628 23.6877L178.781 23.9453ZM178.141 22.8438L177.988 22.5854L177.987 22.5862L178.141 22.8438ZM179.172 21.8203L179.429 21.9742L179.43 21.9728L179.172 21.8203ZM179.172 16.7344L178.914 16.8869L178.914 16.8883L179.172 16.7344ZM178.141 15.7031L177.987 15.9607L177.988 15.9615L178.141 15.7031ZM170.867 16.7344L170.61 16.5796L170.61 16.5805L170.867 16.7344ZM170.867 21.8203L170.609 21.9728L170.611 21.9765L170.867 21.8203ZM176.719 24.5V24.2H173.328V24.5V24.8H176.719V24.5ZM173.328 24.5V24.2C172.619 24.2 171.982 24.0282 171.412 23.6877L171.258 23.9453L171.104 24.2029C171.773 24.602 172.517 24.8 173.328 24.8V24.5ZM171.258 23.9453L171.412 23.6877C170.834 23.3434 170.375 22.8843 170.031 22.3072L169.773 22.4609L169.516 22.6146C169.911 23.2772 170.442 23.8077 171.104 24.2029L171.258 23.9453ZM169.773 22.4609L170.032 22.3082C169.69 21.7313 169.519 21.0943 169.519 20.3906H169.219H168.919C168.919 21.1973 169.117 21.9406 169.515 22.6137L169.773 22.4609ZM169.219 20.3906H169.519V18.1562H169.219H168.919V20.3906H169.219ZM169.219 18.1562H169.519C169.519 17.4525 169.69 16.8186 170.031 16.2475L169.773 16.0938L169.516 15.94C169.117 16.6085 168.919 17.3495 168.919 18.1562H169.219ZM169.773 16.0938L170.032 16.2465C170.376 15.6644 170.835 15.2031 171.412 14.8592L171.258 14.6016L171.104 14.3439C170.441 14.7396 169.91 15.2731 169.515 15.941L169.773 16.0938ZM171.258 14.6016L171.412 14.8592C171.982 14.5186 172.619 14.3469 173.328 14.3469V14.0469V13.7469C172.517 13.7469 171.773 13.9449 171.104 14.3439L171.258 14.6016ZM173.328 14.0469V14.3469H176.719V14.0469V13.7469H173.328V14.0469ZM176.719 14.0469V14.3469C177.422 14.3469 178.056 14.5184 178.628 14.8592L178.781 14.6016L178.935 14.3439C178.266 13.9451 177.525 13.7469 176.719 13.7469V14.0469ZM178.781 14.6016L178.628 14.8598C179.21 15.2036 179.668 15.6642 180.006 16.2449L180.266 16.0938L180.525 15.9426C180.134 15.2733 179.603 14.7391 178.934 14.3434L178.781 14.6016ZM180.266 16.0938L180.008 16.2475C180.349 16.8186 180.52 17.4525 180.52 18.1562H180.82H181.12C181.12 17.3495 180.922 16.6085 180.523 15.94L180.266 16.0938ZM180.82 18.1562H180.52V20.3906H180.82H181.12V18.1562H180.82ZM180.82 20.3906H180.52C180.52 21.0943 180.349 21.7313 180.007 22.3082L180.266 22.4609L180.524 22.6137C180.922 21.9406 181.12 21.1973 181.12 20.3906H180.82ZM180.266 22.4609L180.007 22.3088C179.668 22.8844 179.21 23.3429 178.628 23.6871L178.781 23.9453L178.934 24.2035C179.602 23.8081 180.134 23.277 180.524 22.613L180.266 22.4609ZM178.781 23.9453L178.628 23.6877C178.056 24.0284 177.422 24.2 176.719 24.2V24.5V24.8C177.525 24.8 178.266 24.6018 178.935 24.2029L178.781 23.9453ZM176.719 23.2266V23.5266C177.291 23.5266 177.819 23.3856 178.295 23.1013L178.141 22.8438L177.987 22.5862C177.608 22.8123 177.188 22.9266 176.719 22.9266V23.2266ZM178.141 22.8438L178.293 23.1021C178.768 22.8216 179.148 22.4447 179.429 21.9742L179.172 21.8203L178.914 21.6664C178.685 22.0501 178.378 22.3555 177.988 22.5854L178.141 22.8438ZM179.172 21.8203L179.43 21.9728C179.714 21.4926 179.855 20.963 179.855 20.3906H179.555H179.255C179.255 20.8599 179.14 21.2835 178.914 21.6678L179.172 21.8203ZM179.555 20.3906H179.855V18.1562H179.555H179.255V20.3906H179.555ZM179.555 18.1562H179.855C179.855 17.5839 179.714 17.0563 179.429 16.5805L179.172 16.7344L178.914 16.8883C179.14 17.2666 179.255 17.687 179.255 18.1562H179.555ZM179.172 16.7344L179.43 16.5819C179.149 16.1059 178.769 15.7258 178.293 15.4448L178.141 15.7031L177.988 15.9615C178.377 16.1909 178.684 16.4982 178.914 16.8869L179.172 16.7344ZM178.141 15.7031L178.295 15.4456C177.819 15.1613 177.291 15.0203 176.719 15.0203V15.3203V15.6203C177.188 15.6203 177.608 15.7346 177.987 15.9606L178.141 15.7031ZM176.719 15.3203V15.0203H173.328V15.3203V15.6203H176.719V15.3203ZM173.328 15.3203V15.0203C172.751 15.0203 172.221 15.161 171.745 15.4456L171.898 15.7031L172.052 15.9606C172.43 15.7349 172.853 15.6203 173.328 15.6203V15.3203ZM171.898 15.7031L171.745 15.4456C171.275 15.7264 170.896 16.1057 170.61 16.5796L170.867 16.7344L171.124 16.8892C171.36 16.4984 171.668 16.1902 172.052 15.9606L171.898 15.7031ZM170.867 16.7344L170.61 16.5805C170.325 17.0563 170.184 17.5839 170.184 18.1562H170.484H170.784C170.784 17.687 170.899 17.2666 171.125 16.8883L170.867 16.7344ZM170.484 18.1562H170.184V20.3906H170.484H170.784V18.1562H170.484ZM170.484 20.3906H170.184C170.184 20.963 170.325 21.4926 170.609 21.9728L170.867 21.8203L171.126 21.6678C170.899 21.2835 170.784 20.8599 170.784 20.3906H170.484ZM170.867 21.8203L170.611 21.9765C170.897 22.4449 171.275 22.8209 171.745 23.1013L171.898 22.8438L172.052 22.5862C171.667 22.3561 171.359 22.0499 171.123 21.6641L170.867 21.8203ZM171.898 22.8438L171.745 23.1013C172.221 23.3859 172.751 23.5266 173.328 23.5266V23.2266V22.9266C172.853 22.9266 172.43 22.812 172.052 22.5862L171.898 22.8438ZM173.328 23.2266V23.5266H176.719V23.2266V22.9266H173.328V23.2266ZM191.727 24.5V24.8H192.027V24.5H191.727ZM182.383 19.9609L182.125 19.8075L182.124 19.8084L182.383 19.9609ZM183.422 18.9219L183.574 19.1802L183.575 19.1797L183.422 18.9219ZM190.133 18.0625L190.345 18.2746L190.347 18.2729L190.133 18.0625ZM182.273 15.3203H181.973V15.6203H182.273V15.3203ZM182.273 14.0469V13.7469H181.973V14.0469H182.273ZM190.438 14.4375L190.283 14.6945L190.284 14.6953L190.438 14.4375ZM191.484 15.4844L191.227 15.6378L191.227 15.6392L191.484 15.4844ZM191.484 18.375L191.741 18.5298L191.742 18.5284L191.484 18.375ZM190.438 19.4141L190.59 19.6724L190.591 19.6719L190.438 19.4141ZM183.734 20.2734L183.522 20.0613L183.734 20.2734ZM183.406 23.0859L183.194 23.2981L183.2 23.3037L183.406 23.0859ZM191.727 23.2266H192.027V22.9266H191.727V23.2266ZM191.727 24.5V24.2H183.758V24.5V24.8H191.727V24.5ZM183.758 24.5V24.2C183.353 24.2 183.015 24.06 182.728 23.7722L182.516 23.9844L182.303 24.1965C182.703 24.5963 183.194 24.8 183.758 24.8V24.5ZM182.516 23.9844L182.728 23.7722C182.44 23.4845 182.3 23.1467 182.3 22.7422H182H181.7C181.7 23.3065 181.904 23.7967 182.303 24.1965L182.516 23.9844ZM182 22.7422H182.3V21.4062H182H181.7V22.7422H182ZM182 21.4062H182.3C182.3 20.9254 182.415 20.4968 182.641 20.1135L182.383 19.9609L182.124 19.8084C181.84 20.2896 181.7 20.8246 181.7 21.4062H182ZM182.383 19.9609L182.641 20.1144C182.876 19.7195 183.186 19.4095 183.574 19.1802L183.422 18.9219L183.269 18.6635C182.793 18.9447 182.411 19.3274 182.125 19.8075L182.383 19.9609ZM183.422 18.9219L183.575 19.1797C183.964 18.9481 184.395 18.8313 184.875 18.8313V18.5312V18.2313C184.292 18.2313 183.754 18.3748 183.268 18.6641L183.422 18.9219ZM184.875 18.5312V18.8313H189V18.5312V18.2313H184.875V18.5312ZM189 18.5312V18.8313C189.522 18.8313 189.976 18.6435 190.345 18.2746L190.133 18.0625L189.921 17.8504C189.665 18.1065 189.363 18.2313 189 18.2313V18.5312ZM190.133 18.0625L190.347 18.2729C190.714 17.8995 190.902 17.4439 190.902 16.9219H190.602H190.302C190.302 17.2853 190.177 17.5901 189.919 17.8521L190.133 18.0625ZM190.602 16.9219H190.902C190.902 16.3998 190.714 15.9458 190.345 15.5769L190.133 15.7891L189.921 16.0012C190.177 16.2573 190.302 16.5586 190.302 16.9219H190.602ZM190.133 15.7891L190.345 15.5769C189.976 15.2081 189.522 15.0203 189 15.0203V15.3203V15.6203C189.363 15.6203 189.665 15.7451 189.921 16.0012L190.133 15.7891ZM189 15.3203V15.0203H182.273V15.3203V15.6203H189V15.3203ZM182.273 15.3203H182.573V14.0469H182.273H181.973V15.3203H182.273ZM182.273 14.0469V14.3469H189V14.0469V13.7469H182.273V14.0469ZM189 14.0469V14.3469C189.474 14.3469 189.899 14.4634 190.283 14.6945L190.438 14.4375L190.592 14.1805C190.111 13.8907 189.578 13.7469 189 13.7469V14.0469ZM190.438 14.4375L190.284 14.6953C190.679 14.9302 190.992 15.2432 191.227 15.6378L191.484 15.4844L191.742 15.3309C191.456 14.8505 191.071 14.4657 190.591 14.1797L190.438 14.4375ZM191.484 15.4844L191.227 15.6392C191.458 16.0227 191.575 16.448 191.575 16.9219H191.875H192.175C192.175 16.3437 192.031 15.8106 191.741 15.3296L191.484 15.4844ZM191.875 16.9219H191.575C191.575 17.4016 191.458 17.8325 191.227 18.2216L191.484 18.375L191.742 18.5284C192.031 18.0425 192.175 17.5047 192.175 16.9219H191.875ZM191.484 18.375L191.227 18.2202C190.993 18.6098 190.679 18.9209 190.284 19.1563L190.438 19.4141L190.591 19.6719C191.071 19.3864 191.455 19.0048 191.741 18.5298L191.484 18.375ZM190.438 19.4141L190.285 19.1557C189.901 19.3823 189.475 19.4969 189 19.4969V19.7969V20.0969C189.577 20.0969 190.109 19.9562 190.59 19.6724L190.438 19.4141ZM189 19.7969V19.4969H184.875V19.7969V20.0969H189V19.7969ZM184.875 19.7969V19.4969C184.351 19.4969 183.895 19.6883 183.522 20.0613L183.734 20.2734L183.947 20.4856C184.209 20.2232 184.513 20.0969 184.875 20.0969V19.7969ZM183.734 20.2734L183.522 20.0613C183.153 20.4302 182.966 20.8841 182.966 21.4062H183.266H183.566C183.566 21.043 183.69 20.7417 183.947 20.4856L183.734 20.2734ZM183.266 21.4062H182.966V22.7422H183.266H183.566V21.4062H183.266ZM183.266 22.7422H182.966C182.966 22.9553 183.043 23.1467 183.194 23.2981L183.406 23.0859L183.618 22.8738C183.582 22.8377 183.566 22.7999 183.566 22.7422H183.266ZM183.406 23.0859L183.2 23.3037C183.354 23.4499 183.545 23.5266 183.758 23.5266V23.2266V22.9266C183.7 22.9266 183.656 22.9095 183.613 22.8682L183.406 23.0859ZM183.758 23.2266V23.5266H191.727V23.2266V22.9266H183.758V23.2266ZM191.727 23.2266H191.427V24.5H191.727H192.027V23.2266H191.727ZM193.125 24.5H192.825V24.8H193.125V24.5ZM193.125 23.2266V22.9266H192.825V23.2266H193.125ZM201.234 22.7188L201.022 22.5066L201.234 22.7188ZM201.234 20.2344L201.021 20.4449L201.022 20.4465L201.234 20.2344ZM194.578 19.3359L194.425 19.5937L194.427 19.5951L194.578 19.3359ZM193.531 18.2969L193.272 18.4481L193.274 18.4517L193.531 18.2969ZM202.656 14.0469H202.956V13.7469H202.656V14.0469ZM202.656 15.3203V15.6203H202.956V15.3203H202.656ZM194.891 17.9844L194.677 18.1948L194.678 18.1965L194.891 17.9844ZM202.609 19.9531L202.351 20.1057L202.352 20.1079L202.609 19.9531ZM202.609 22.9922L202.352 22.8374L202.351 22.8396L202.609 22.9922ZM201.516 24.0938L201.668 24.352L201.67 24.3507L201.516 24.0938ZM200 24.5V24.2H193.125V24.5V24.8H200V24.5ZM193.125 24.5H193.425V23.2266H193.125H192.825V24.5H193.125ZM193.125 23.2266V23.5266H200V23.2266V22.9266H193.125V23.2266ZM200 23.2266V23.5266C200.563 23.5266 201.051 23.3264 201.447 22.9309L201.234 22.7188L201.022 22.5066C200.741 22.7882 200.406 22.9266 200 22.9266V23.2266ZM201.234 22.7188L201.447 22.9309C201.846 22.5311 202.05 22.0408 202.05 21.4766H201.75H201.45C201.45 21.881 201.31 22.2189 201.022 22.5066L201.234 22.7188ZM201.75 21.4766H202.05C202.05 20.9123 201.846 20.422 201.447 20.0222L201.234 20.2344L201.022 20.4465C201.31 20.7342 201.45 21.0721 201.45 21.4766H201.75ZM201.234 20.2344L201.448 20.0239C201.053 19.6226 200.564 19.4187 200 19.4187V19.7188V20.0188C200.404 20.0188 200.739 20.1586 201.021 20.4449L201.234 20.2344ZM200 19.7188V19.4187H196.023V19.7188V20.0188H200V19.7188ZM196.023 19.7188V19.4187C195.548 19.4187 195.119 19.3042 194.729 19.0768L194.578 19.3359L194.427 19.5951C194.912 19.8781 195.446 20.0188 196.023 20.0188V19.7188ZM194.578 19.3359L194.732 19.0781C194.336 18.8428 194.023 18.5316 193.788 18.1421L193.531 18.2969L193.274 18.4517C193.56 18.9267 193.945 19.3083 194.425 19.5937L194.578 19.3359ZM193.531 18.2969L193.79 18.1457C193.563 17.7564 193.448 17.3246 193.448 16.8438H193.148H192.848C192.848 17.4254 192.989 17.9624 193.272 18.448L193.531 18.2969ZM193.148 16.8438H193.448V15.8047H193.148H192.848V16.8438H193.148ZM193.148 15.8047H193.448C193.448 15.4002 193.588 15.0624 193.876 14.7746L193.664 14.5625L193.452 14.3504C193.052 14.7501 192.848 15.2404 192.848 15.8047H193.148ZM193.664 14.5625L193.876 14.7746C194.164 14.4869 194.502 14.3469 194.906 14.3469V14.0469V13.7469C194.342 13.7469 193.852 13.9506 193.452 14.3504L193.664 14.5625ZM194.906 14.0469V14.3469H202.656V14.0469V13.7469H194.906V14.0469ZM202.656 14.0469H202.356V15.3203H202.656H202.956V14.0469H202.656ZM202.656 15.3203V15.0203H194.906V15.3203V15.6203H202.656V15.3203ZM194.906 15.3203V15.0203C194.693 15.0203 194.502 15.0975 194.35 15.2488L194.562 15.4609L194.775 15.6731C194.811 15.6369 194.848 15.6203 194.906 15.6203V15.3203ZM194.562 15.4609L194.35 15.2488C194.199 15.4002 194.122 15.5916 194.122 15.8047H194.422H194.722C194.722 15.7469 194.738 15.7092 194.775 15.6731L194.562 15.4609ZM194.422 15.8047H194.122V16.8438H194.422H194.722V15.8047H194.422ZM194.422 16.8438H194.122C194.122 17.3657 194.309 17.8213 194.677 18.1947L194.891 17.9844L195.105 17.774C194.847 17.512 194.722 17.2072 194.722 16.8438H194.422ZM194.891 17.9844L194.678 18.1965C195.047 18.5654 195.501 18.7531 196.023 18.7531V18.4531V18.1531C195.66 18.1531 195.359 18.0284 195.103 17.7722L194.891 17.9844ZM196.023 18.4531V18.7531H200V18.4531V18.1531H196.023V18.4531ZM200 18.4531V18.7531C200.5 18.7531 200.953 18.8752 201.363 19.1177L201.516 18.8594L201.668 18.6011C201.162 18.3019 200.604 18.1531 200 18.1531V18.4531ZM201.516 18.8594L201.363 19.1177C201.778 19.3627 202.106 19.691 202.351 20.1057L202.609 19.9531L202.868 19.8005C202.571 19.2986 202.17 18.8977 201.668 18.6011L201.516 18.8594ZM202.609 19.9531L202.352 20.1079C202.599 20.5175 202.723 20.9714 202.723 21.4766H203.023H203.323C203.323 20.8671 203.172 20.3054 202.866 19.7983L202.609 19.9531ZM203.023 21.4766H202.723C202.723 21.9759 202.599 22.4273 202.352 22.8374L202.609 22.9922L202.866 23.147C203.171 22.6404 203.323 22.0814 203.323 21.4766H203.023ZM202.609 22.9922L202.351 22.8396C202.106 23.2548 201.777 23.5863 201.361 23.8368L201.516 24.0938L201.67 24.3507C202.171 24.0492 202.571 23.6462 202.868 23.1448L202.609 22.9922ZM201.516 24.0938L201.363 23.8355C200.953 24.078 200.5 24.2 200 24.2V24.5V24.8C200.604 24.8 201.162 24.6512 201.668 24.352L201.516 24.0938Z" fill="#E63D4B" mask="url(#path-2-outside-1_355_328)"/>
<rect x="336.261" y="14.8156" width="6.4774" height="10.6477" rx="3.2387" transform="rotate(38.331 336.261 14.8156)" stroke="#D9D9D9"/>
<rect x="333.805" y="20.7414" width="2.77116" height="2.66518" rx="1.33259" transform="rotate(38.331 333.805 20.7414)" fill="#D9D9D9" stroke="#D9D9D9"/>
<path d="M341.119 13.3838C343.955 15.4759 344.558 19.4708 342.466 22.3067L337.818 28.606L329.95 28.5231L327.549 21.0297L332.196 14.7304C334.288 11.8946 338.283 11.2917 341.119 13.3838Z" stroke="#C3C6C9"/>
</svg>
