<svg width="360" height="42" viewBox="0 0 360 42" fill="none" xmlns="http://www.w3.org/2000/svg">
<rect x="0.3" y="0.3" width="359.4" height="41.4" fill="black" fill-opacity="0.25"/>
<rect x="0.3" y="0.3" width="359.4" height="41.4" stroke="#67170D" stroke-width="0.6"/>
<path d="M14.9429 26.5V14.996H24.5429C24.8949 14.996 25.2149 15.0867 25.5029 15.268C25.8015 15.4387 26.0362 15.668 26.2069 15.956C26.3775 16.244 26.4629 16.564 26.4629 16.916V20.292C26.4629 20.644 26.3775 20.964 26.2069 21.252C26.0362 21.54 25.8015 21.7747 25.5029 21.956C25.2149 22.1267 24.8949 22.212 24.5429 22.212H16.2389V26.5H14.9429ZM16.8629 20.9H24.5429C24.7135 20.9 24.8575 20.8413 24.9749 20.724C25.1029 20.6067 25.1669 20.4627 25.1669 20.292V16.916C25.1669 16.7453 25.1029 16.6013 24.9749 16.484C24.8575 16.356 24.7135 16.292 24.5429 16.292H16.8629C16.6922 16.292 16.5429 16.356 16.4149 16.484C16.2975 16.6013 16.2389 16.7453 16.2389 16.916V20.292C16.2389 20.4627 16.2975 20.6067 16.4149 20.724C16.5429 20.8413 16.6922 20.9 16.8629 20.9ZM27.7874 26.5V16.9C27.7874 16.548 27.8727 16.228 28.0434 15.94C28.214 15.6413 28.4434 15.4067 28.7314 15.236C29.03 15.0653 29.3554 14.98 29.7074 14.98H37.3874C37.7394 14.98 38.0594 15.0653 38.3474 15.236C38.646 15.4067 38.8807 15.6413 39.0514 15.94C39.222 16.228 39.3074 16.548 39.3074 16.9V26.5H38.0114V22.292H29.0834V26.5H27.7874ZM29.0834 20.996H38.0114V16.9C38.0114 16.7293 37.9474 16.5853 37.8194 16.468C37.702 16.34 37.558 16.276 37.3874 16.276H29.7074C29.5367 16.276 29.3874 16.34 29.2594 16.468C29.142 16.5853 29.0834 16.7293 29.0834 16.9V20.996ZM50.8584 26.5L47.0984 22.02H48.7944L52.5704 26.484V26.5H50.8584ZM41.1304 26.5V14.996H50.7304C51.0824 14.996 51.4024 15.0867 51.6904 15.268C51.989 15.4387 52.2237 15.668 52.3944 15.956C52.565 16.244 52.6504 16.564 52.6504 16.916V20.292C52.6504 20.644 52.565 20.964 52.3944 21.252C52.2237 21.54 51.989 21.7747 51.6904 21.956C51.4024 22.1267 51.0824 22.212 50.7304 22.212H42.4264V26.5H41.1304ZM43.0504 20.9H50.7304C50.901 20.9 51.045 20.8413 51.1624 20.724C51.2904 20.6067 51.3544 20.4627 51.3544 20.292V16.916C51.3544 16.7453 51.2904 16.6013 51.1624 16.484C51.045 16.356 50.901 16.292 50.7304 16.292H43.0504C42.8797 16.292 42.7304 16.356 42.6024 16.484C42.485 16.6013 42.4264 16.7453 42.4264 16.916V20.292C42.4264 20.4627 42.485 20.6067 42.6024 20.724C42.7304 20.8413 42.8797 20.9 43.0504 20.9ZM58.8775 26.5V16.276H53.7575V14.98H65.2775V16.276H60.1735V26.5H58.8775ZM71.3861 26.5V22.164L66.0901 14.98H67.5781L72.0421 20.612L76.4581 14.98H77.9781L72.6821 22.164V26.5H71.3861ZM79.3328 18.404V17.092H80.6448V18.404H79.3328ZM79.3328 26.5V25.188H80.6448V26.5H79.3328ZM87.162 26.5V22.18C87.162 21.8173 87.2473 21.492 87.418 21.204C87.5887 20.9053 87.818 20.6707 88.106 20.5C88.4047 20.3293 88.7353 20.244 89.098 20.244H96.858C97.0287 20.244 97.1727 20.1853 97.29 20.068C97.418 19.94 97.482 19.7907 97.482 19.62V16.916C97.482 16.7453 97.418 16.6013 97.29 16.484C97.1727 16.356 97.0287 16.292 96.858 16.292H89.098C88.9273 16.292 88.778 16.356 88.65 16.484C88.5327 16.6013 88.474 16.7453 88.474 16.916V17.364H87.162V16.916C87.162 16.5533 87.2473 16.228 87.418 15.94C87.5887 15.6413 87.818 15.4067 88.106 15.236C88.4047 15.0547 88.7353 14.964 89.098 14.964H96.858C97.21 14.964 97.53 15.0547 97.818 15.236C98.1167 15.4067 98.3513 15.6413 98.522 15.94C98.7033 16.228 98.794 16.5533 98.794 16.916V19.62C98.794 19.972 98.7033 20.2973 98.522 20.596C98.3513 20.884 98.1167 21.1187 97.818 21.3C97.53 21.4707 97.21 21.556 96.858 21.556H89.098C88.9273 21.556 88.778 21.62 88.65 21.748C88.5327 21.8653 88.474 22.0093 88.474 22.18V24.564C88.474 24.7347 88.5327 24.884 88.65 25.012C88.778 25.1293 88.9273 25.188 89.098 25.188H98.794V26.5H87.162ZM102.379 26.5C102.017 26.5 101.686 26.4147 101.387 26.244C101.099 26.0627 100.87 25.828 100.699 25.54C100.529 25.2413 100.443 24.916 100.443 24.564V16.916C100.443 16.5533 100.529 16.228 100.699 15.94C100.87 15.6413 101.099 15.4067 101.387 15.236C101.686 15.0547 102.017 14.964 102.379 14.964H110.059V16.292H102.379C102.209 16.292 102.059 16.356 101.931 16.484C101.814 16.6013 101.755 16.7453 101.755 16.916V19.22C101.755 19.3907 101.814 19.54 101.931 19.668C102.059 19.796 102.209 19.86 102.379 19.86H110.139C110.491 19.86 110.811 19.9453 111.099 20.116C111.398 20.2867 111.633 20.5213 111.803 20.82C111.985 21.108 112.075 21.4333 112.075 21.796V24.564C112.075 24.916 111.985 25.2413 111.803 25.54C111.633 25.828 111.398 26.0627 111.099 26.244C110.811 26.4147 110.491 26.5 110.139 26.5H102.379ZM102.379 25.188H110.139C110.31 25.188 110.454 25.1293 110.571 25.012C110.699 24.884 110.763 24.7347 110.763 24.564V21.796C110.763 21.6253 110.699 21.4813 110.571 21.364C110.454 21.236 110.31 21.172 110.139 21.172H101.755V24.564C101.755 24.7347 101.814 24.884 101.931 25.012C102.059 25.1293 102.209 25.188 102.379 25.188ZM113.6 22.42V21.108H119.84V22.42H113.6ZM123.77 26.5C123.407 26.5 123.077 26.4147 122.778 26.244C122.49 26.0627 122.261 25.828 122.09 25.54C121.919 25.2413 121.834 24.916 121.834 24.564V16.932C121.834 16.5693 121.919 16.244 122.09 15.956C122.261 15.6573 122.49 15.4227 122.778 15.252C123.077 15.0707 123.407 14.98 123.77 14.98H131.53C131.882 14.98 132.202 15.0707 132.49 15.252C132.789 15.4227 133.023 15.6573 133.194 15.956C133.375 16.244 133.466 16.5693 133.466 16.932V24.564C133.466 24.916 133.375 25.2413 133.194 25.54C133.023 25.828 132.789 26.0627 132.49 26.244C132.202 26.4147 131.882 26.5 131.53 26.5H123.77ZM123.306 25.188H131.53C131.701 25.188 131.845 25.1293 131.962 25.012C132.09 24.884 132.154 24.7347 132.154 24.564V17.892L123.306 25.188ZM123.146 23.604L131.978 16.308H123.77C123.599 16.308 123.45 16.372 123.322 16.5C123.205 16.6173 123.146 16.7613 123.146 16.932V23.604ZM142.394 26.5V23.524H134.362V22.052L142.234 14.964H143.706V22.212H145.498V23.524H143.706V26.5H142.394ZM136.042 22.212H142.394V16.74L136.042 22.212ZM146.897 22.42V21.108H153.137V22.42H146.897ZM155.131 26.5V22.18C155.131 21.8173 155.216 21.492 155.387 21.204C155.557 20.9053 155.787 20.6707 156.075 20.5C156.373 20.3293 156.704 20.244 157.067 20.244H164.827C164.997 20.244 165.141 20.1853 165.259 20.068C165.387 19.94 165.451 19.7907 165.451 19.62V16.916C165.451 16.7453 165.387 16.6013 165.259 16.484C165.141 16.356 164.997 16.292 164.827 16.292H157.067C156.896 16.292 156.747 16.356 156.619 16.484C156.501 16.6013 156.443 16.7453 156.443 16.916V17.364H155.131V16.916C155.131 16.5533 155.216 16.228 155.387 15.94C155.557 15.6413 155.787 15.4067 156.075 15.236C156.373 15.0547 156.704 14.964 157.067 14.964H164.827C165.179 14.964 165.499 15.0547 165.787 15.236C166.085 15.4067 166.32 15.6413 166.491 15.94C166.672 16.228 166.763 16.5533 166.763 16.916V19.62C166.763 19.972 166.672 20.2973 166.491 20.596C166.32 20.884 166.085 21.1187 165.787 21.3C165.499 21.4707 165.179 21.556 164.827 21.556H157.067C156.896 21.556 156.747 21.62 156.619 21.748C156.501 21.8653 156.443 22.0093 156.443 22.18V24.564C156.443 24.7347 156.501 24.884 156.619 25.012C156.747 25.1293 156.896 25.188 157.067 25.188H166.763V26.5H155.131ZM170.348 26.5C169.985 26.5 169.655 26.4147 169.356 26.244C169.068 26.0627 168.839 25.828 168.668 25.54C168.497 25.2413 168.412 24.916 168.412 24.564V16.932C168.412 16.5693 168.497 16.244 168.668 15.956C168.839 15.6573 169.068 15.4227 169.356 15.252C169.655 15.0707 169.985 14.98 170.348 14.98H178.108C178.46 14.98 178.78 15.0707 179.068 15.252C179.367 15.4227 179.601 15.6573 179.772 15.956C179.953 16.244 180.044 16.5693 180.044 16.932V24.564C180.044 24.916 179.953 25.2413 179.772 25.54C179.601 25.828 179.367 26.0627 179.068 26.244C178.78 26.4147 178.46 26.5 178.108 26.5H170.348ZM169.884 25.188H178.108C178.279 25.188 178.423 25.1293 178.54 25.012C178.668 24.884 178.732 24.7347 178.732 24.564V17.892L169.884 25.188ZM169.724 23.604L178.556 16.308H170.348C170.177 16.308 170.028 16.372 169.9 16.5C169.783 16.6173 169.724 16.7613 169.724 16.932V23.604ZM181.756 26.5V22.18C181.756 21.8173 181.841 21.492 182.012 21.204C182.182 20.9053 182.412 20.6707 182.7 20.5C182.998 20.3293 183.329 20.244 183.692 20.244H191.452C191.622 20.244 191.766 20.1853 191.884 20.068C192.012 19.94 192.076 19.7907 192.076 19.62V16.916C192.076 16.7453 192.012 16.6013 191.884 16.484C191.766 16.356 191.622 16.292 191.452 16.292H183.692C183.521 16.292 183.372 16.356 183.244 16.484C183.126 16.6013 183.068 16.7453 183.068 16.916V17.364H181.756V16.916C181.756 16.5533 181.841 16.228 182.012 15.94C182.182 15.6413 182.412 15.4067 182.7 15.236C182.998 15.0547 183.329 14.964 183.692 14.964H191.452C191.804 14.964 192.124 15.0547 192.412 15.236C192.71 15.4067 192.945 15.6413 193.116 15.94C193.297 16.228 193.388 16.5533 193.388 16.916V19.62C193.388 19.972 193.297 20.2973 193.116 20.596C192.945 20.884 192.71 21.1187 192.412 21.3C192.124 21.4707 191.804 21.556 191.452 21.556H183.692C183.521 21.556 183.372 21.62 183.244 21.748C183.126 21.8653 183.068 22.0093 183.068 22.18V24.564C183.068 24.7347 183.126 24.884 183.244 25.012C183.372 25.1293 183.521 25.188 183.692 25.188H193.388V26.5H181.756ZM196.973 26.5C196.61 26.5 196.28 26.4147 195.981 26.244C195.693 26.0627 195.464 25.828 195.293 25.54C195.122 25.2413 195.037 24.916 195.037 24.564V24.1H196.349V24.564C196.349 24.7347 196.408 24.884 196.525 25.012C196.653 25.1293 196.802 25.188 196.973 25.188H204.733C204.904 25.188 205.048 25.1293 205.165 25.012C205.293 24.884 205.357 24.7347 205.357 24.564V21.844C205.357 21.6733 205.293 21.5293 205.165 21.412C205.048 21.284 204.904 21.22 204.733 21.22H195.037V14.964H206.669V16.292H196.973C196.802 16.292 196.653 16.356 196.525 16.484C196.408 16.6013 196.349 16.7453 196.349 16.916V19.268C196.349 19.4387 196.408 19.588 196.525 19.716C196.653 19.844 196.802 19.908 196.973 19.908H204.733C205.085 19.908 205.405 19.9933 205.693 20.164C205.992 20.3347 206.226 20.5693 206.397 20.868C206.578 21.156 206.669 21.4813 206.669 21.844V24.564C206.669 24.916 206.578 25.2413 206.397 25.54C206.226 25.828 205.992 26.0627 205.693 26.244C205.405 26.4147 205.085 26.5 204.733 26.5H196.973Z" fill="#E63D4B"/>
<rect x="336.261" y="14.8157" width="6.4774" height="10.6477" rx="3.2387" transform="rotate(38.331 336.261 14.8157)" stroke="#D9D9D9"/>
<rect x="333.805" y="20.7414" width="2.77116" height="2.66518" rx="1.33259" transform="rotate(38.331 333.805 20.7414)" fill="#D9D9D9" stroke="#D9D9D9"/>
<path d="M341.119 13.3838C343.955 15.4759 344.558 19.4708 342.466 22.3067L337.819 28.606L329.95 28.5231L327.549 21.0297L332.196 14.7304C334.289 11.8946 338.283 11.2917 341.119 13.3838Z" stroke="#C3C6C9"/>
</svg>
