<svg width="32" height="34" viewBox="0 0 32 34" fill="none" xmlns="http://www.w3.org/2000/svg">
<rect width="32" height="33.6" fill="#E63D4B" fill-opacity="0.4"/>
<path d="M19.75 6.7998C20.9409 6.7998 21.9156 7.72496 21.9948 8.89575L22 9.0498V9.7988L23.75 9.7998C24.9409 9.7998 25.9156 10.725 25.9948 11.8958L26 12.0498V21.5498C26 22.7407 25.0748 23.7155 23.904 23.7947L23.75 23.7998H22V24.5498C22 25.7407 21.0748 26.7154 19.904 26.7946L19.75 26.7998H12.25C11.0591 26.7998 10.0844 25.8746 10.0052 24.7038L10 24.5498V23.7998H8.25C7.05914 23.7998 6.08436 22.8747 6.00519 21.7039L6 21.5498V12.0498C6 10.8589 6.92516 9.88416 8.09595 9.80499L8.25 9.7998L10 9.7988V9.0498C10 7.85894 10.9252 6.88416 12.096 6.80499L12.25 6.7998H19.75ZM19.75 8.2998H12.25C11.8703 8.2998 11.5565 8.58195 11.5068 8.94803L11.5 9.0498V24.5498C11.5 24.9295 11.7821 25.2433 12.1482 25.293L12.25 25.2998H19.75C20.1297 25.2998 20.4435 25.0176 20.4932 24.6516L20.5 24.5498V9.0498C20.5 8.6701 20.2178 8.35631 19.8518 8.30665L19.75 8.2998ZM10 11.2988L8.25 11.2998C7.8703 11.2998 7.55651 11.582 7.50685 11.948L7.5 12.0498V21.5498C7.5 21.9295 7.78215 22.2433 8.14823 22.293L8.25 22.2998H10V11.2988ZM23.75 11.2998L22 11.2988V22.2998H23.75C24.1297 22.2998 24.4435 22.0177 24.4932 21.6516L24.5 21.5498V12.0498C24.5 11.6356 24.1642 11.2998 23.75 11.2998Z" fill="#D9D9D9"/>
</svg>
